<svg xmlns="http://www.w3.org/2000/svg" xmlns:v="https://svgstorm.com" viewBox="0 0 1600 1600" width="1600" height="1600">
    <g fill="white">
        <circle cx="50%" cy="50%" r="1600" fill="white" />
    </g>
    <g fill="#000000" >
        <path d=" M 0.00 1600.00  L 1600.00 1600.00 L 1600.00 0.00 L 0.00 0.00 L 0.00 1600.00 M 783.00 395.00  C 783.08 395.49 783.00 396.00 783.00 396.00 C 797.41 413.98 794.15 443.28 796.00 466.00 C 797.85 488.72 791.08 516.65 784.08 537.08 C 777.07 557.50 769.24 573.89 754.25 590.25 C 739.26 606.61 723.14 618.00 700.98 620.98 C 678.81 623.96 653.71 615.69 636.25 602.75 C 618.80 589.80 608.73 576.66 596.74 559.26 C 584.75 541.85 576.83 522.86 570.00 502.00 C 563.18 481.14 559.95 451.50 561.33 428.33 C 562.71 405.16 569.39 384.14 581.75 365.75 C 594.11 347.36 606.10 335.05 625.23 325.23 C 644.36 315.41 674.57 310.85 696.00 315.00 C 717.43 319.15 735.11 329.22 750.25 343.75 C 765.38 358.28 779.58 374.36 783.00 395.00 M 815.00 405.00  C 815.01 404.50 815.00 404.00 815.00 404.00 C 815.64 387.11 828.22 372.91 836.75 358.75 C 845.28 344.59 858.64 335.94 873.08 327.08 C 887.51 318.21 910.03 313.42 928.00 314.00 C 945.97 314.58 966.17 318.87 981.08 327.92 C 995.98 336.98 1006.46 345.74 1016.75 360.25 C 1027.05 374.76 1033.59 389.98 1037.32 407.68 C 1041.05 425.38 1041.42 452.11 1038.02 470.02 C 1034.63 487.94 1029.84 506.65 1023.03 523.03 C 1016.21 539.40 1008.53 552.65 998.75 566.75 C 988.96 580.84 979.41 590.02 965.75 600.75 C 952.09 611.49 936.16 619.67 918.00 621.00 C 899.84 622.33 878.30 617.61 864.30 606.70 C 850.31 595.78 841.47 586.32 832.70 571.31 C 823.92 556.29 816.42 541.26 812.08 523.92 C 807.73 506.59 803.18 481.76 805.00 463.00 C 806.82 444.24 802.53 419.48 815.00 405.00 M 489.00 482.00  C 539.70 488.13 575.82 530.13 591.98 577.02 C 608.13 623.92 611.68 693.64 566.75 727.75 C 521.82 761.86 463.51 736.79 426.30 702.70 C 389.09 668.62 361.39 614.15 373.00 564.00 C 384.60 513.85 437.00 475.72 489.00 482.00 M 1133.00 482.00  C 1182.14 487.94 1227.93 530.47 1230.00 582.00 C 1232.07 633.54 1201.02 679.35 1162.75 711.75 C 1124.48 744.16 1059.92 758.69 1023.25 716.75 C 986.57 674.81 995.42 608.15 1014.92 561.92 C 1034.42 515.70 1080.01 475.60 1133.00 482.00 M 813.00 632.00  C 832.46 633.88 856.64 637.64 875.07 642.93 C 893.51 648.21 911.37 655.43 928.08 663.92 C 944.78 672.42 959.29 681.56 974.23 691.77 C 989.16 701.98 1000.63 712.51 1014.08 724.92 C 1027.54 737.33 1038.33 749.21 1050.25 762.75 C 1062.16 776.29 1072.59 789.15 1082.92 804.08 C 1093.25 819.02 1101.13 833.91 1109.77 850.23 C 1118.41 866.55 1126.69 882.49 1133.32 900.68 C 1139.95 918.86 1146.29 937.24 1150.93 957.07 C 1155.57 976.91 1158.67 999.63 1160.00 1021.00 C 1161.33 1042.37 1161.00 1070.36 1158.00 1091.00 C 1155.00 1111.64 1149.80 1131.72 1143.08 1150.08 C 1136.36 1168.44 1129.36 1183.96 1118.70 1199.70 C 1108.03 1215.44 1098.92 1226.25 1084.92 1238.92 C 1070.92 1251.59 1058.47 1261.01 1041.30 1269.30 C 1024.14 1277.60 1004.35 1284.56 983.98 1285.98 C 963.60 1287.39 936.71 1285.03 917.78 1279.22 C 898.84 1273.41 880.56 1269.54 863.31 1259.70 C 846.05 1249.85 831.57 1246.42 815.31 1233.70 C 799.04 1220.97 784.86 1235.18 768.75 1244.75 C 752.64 1254.33 736.28 1261.69 718.33 1268.33 C 700.38 1274.96 680.22 1281.50 660.33 1284.33 C 640.43 1287.16 611.97 1286.79 592.98 1282.02 C 573.98 1277.25 556.89 1270.02 541.30 1259.70 C 525.72 1249.37 514.13 1239.52 501.25 1225.75 C 488.37 1211.98 480.40 1199.06 470.70 1182.31 C 460.99 1165.55 456.21 1148.99 450.22 1129.78 C 444.24 1110.57 441.19 1088.01 439.22 1066.78 C 437.26 1045.55 439.12 1018.67 441.93 997.93 C 444.73 977.19 448.83 956.14 453.98 936.98 C 459.12 917.82 466.26 900.24 473.77 882.77 C 481.28 865.31 488.97 849.19 498.31 833.31 C 507.64 817.42 516.04 803.46 527.25 789.25 C 538.47 775.05 549.55 762.55 560.75 748.75 C 571.96 734.95 585.33 725.22 598.75 712.75 C 612.17 700.27 625.78 692.25 641.23 682.23 C 656.68 672.21 670.97 662.82 688.69 655.69 C 706.42 648.56 724.42 641.63 744.22 637.22 C 764.03 632.81 791.25 629.89 813.00 632.00 Z"/>
    </g>
    <g fill="#000000" >
        <path d=" M 935.00 360.00  C 906.35 354.87 881.48 371.57 867.30 395.30 C 853.12 419.04 848.82 452.54 851.67 481.33 C 854.52 510.12 861.27 532.66 878.25 556.75 C 895.22 580.84 927.12 578.62 946.25 558.25 C 965.38 537.87 975.95 520.66 985.07 495.07 C 994.20 469.49 998.10 433.79 989.32 407.68 C 980.54 381.57 961.40 364.73 935.00 360.00 Z"/>
    </g>
    <g fill="#000000" >
        <path d=" M 683.00 361.00  C 654.18 358.21 628.69 371.17 615.78 396.78 C 602.86 422.38 605.07 456.55 612.07 482.93 C 619.08 509.30 630.30 529.23 646.75 550.25 C 663.20 571.27 694.11 585.31 714.75 564.75 C 735.40 544.19 741.94 522.97 747.67 495.67 C 753.40 468.37 749.70 431.47 739.31 406.69 C 728.91 381.92 709.69 363.58 683.00 361.00 Z"/>
    </g>
    <g fill="#000000" >
        <path d=" M 485.00 529.00  C 450.90 523.46 420.33 553.53 418.93 584.93 C 417.53 616.32 436.23 646.33 457.75 666.25 C 479.27 686.16 515.86 709.88 540.75 686.75 C 565.64 663.63 556.44 616.72 546.77 589.23 C 537.10 561.74 515.26 533.91 485.00 529.00 Z"/>
    </g>
    <g fill="#000000" >
        <path d=" M 1132.00 529.00  C 1099.70 523.76 1070.66 549.91 1058.97 577.97 C 1047.29 606.04 1036.08 647.34 1053.25 677.75 C 1070.41 708.17 1112.37 694.15 1135.25 674.25 C 1158.13 654.35 1176.15 629.19 1181.08 598.08 C 1186.01 566.97 1165.07 534.37 1132.00 529.00 Z"/>
    </g>
    <g fill="#000000">
        <path d=" M 845.00 1196.00  C 885.38 1219.84 936.36 1243.50 985.00 1237.00 C 1033.64 1230.50 1063.93 1199.39 1087.75 1157.75 C 1111.57 1116.10 1117.45 1052.18 1110.93 1004.07 C 1104.41 955.97 1088.15 908.27 1065.77 867.23 C 1043.39 826.19 1020.78 797.00 987.10 763.90 C 953.41 730.80 918.57 711.06 875.07 692.93 C 831.58 674.79 765.23 675.50 722.03 694.03 C 678.82 712.55 644.53 732.15 610.75 765.75 C 576.97 799.35 554.96 828.24 532.77 869.77 C 510.58 911.30 494.25 959.10 488.33 1007.33 C 482.41 1055.56 488.79 1119.92 513.08 1160.92 C 537.38 1201.92 569.82 1232.30 618.00 1238.00 C 666.18 1243.70 716.71 1219.28 757.00 1197.00 C 752.14 1189.86 742.75 1185.77 735.75 1180.25 C 728.76 1174.73 721.13 1169.38 714.08 1163.92 C 707.04 1158.46 700.14 1153.45 693.25 1147.75 C 686.35 1142.06 679.29 1136.50 672.75 1130.25 C 666.22 1123.99 660.12 1118.81 654.25 1111.75 C 648.38 1104.69 642.07 1098.67 636.77 1091.23 C 631.47 1083.79 626.53 1077.20 621.92 1069.08 C 617.32 1060.95 613.27 1052.89 608.93 1044.07 C 604.59 1035.26 602.47 1025.97 599.92 1016.08 C 597.38 1006.18 594.77 994.86 594.00 984.00 C 593.23 973.14 594.23 959.32 596.00 949.00 C 597.77 938.68 599.20 926.98 602.74 917.74 C 606.29 908.50 609.20 900.25 613.70 891.69 C 618.19 883.14 621.98 875.27 627.75 867.75 C 633.52 860.23 639.39 854.68 646.75 848.75 C 654.12 842.83 660.18 838.45 668.98 833.98 C 677.77 829.50 688.94 827.80 698.98 825.98 C 709.02 824.15 722.62 823.09 732.98 825.02 C 743.33 826.95 753.78 828.33 762.93 833.07 C 772.08 837.82 780.04 837.28 787.92 845.08 C 795.79 852.88 802.69 853.02 810.77 845.77 C 818.85 838.52 825.81 837.63 834.93 832.93 C 844.04 828.23 854.93 828.11 865.00 825.00 C 875.07 821.89 889.30 824.66 899.33 825.67 C 909.36 826.68 920.21 829.87 928.97 834.03 C 937.74 838.19 944.70 841.75 952.25 847.75 C 959.80 853.75 964.95 859.76 970.75 867.25 C 976.55 874.74 981.11 882.18 985.25 890.75 C 989.38 899.33 993.27 907.38 996.08 916.92 C 998.89 926.47 1002.86 936.62 1004.00 947.00 C 1005.14 957.38 1007.00 971.21 1006.00 982.00 C 1004.99 992.78 1003.30 1004.82 1000.78 1014.78 C 998.25 1024.74 995.47 1033.71 991.77 1042.77 C 988.08 1051.83 983.29 1059.76 978.92 1067.92 C 974.55 1076.08 969.34 1082.72 963.92 1089.92 C 958.50 1097.12 953.34 1104.76 947.25 1111.25 C 941.15 1117.74 935.11 1123.80 928.75 1129.75 C 922.38 1135.70 915.04 1141.36 908.23 1147.23 C 901.42 1153.10 894.18 1157.65 887.25 1163.25 C 880.31 1168.85 872.64 1174.21 865.75 1179.75 C 858.85 1185.28 850.28 1189.64 845.00 1196.00 Z"/>
    </g>
    <g fill="#000000">
        <path d=" M 801.00 928.00  C 793.20 921.56 788.70 911.27 782.30 902.70 C 775.91 894.13 769.69 886.42 759.74 881.26 C 749.80 876.09 738.88 871.32 727.00 870.00 C 715.12 868.68 699.65 871.11 689.67 875.67 C 679.70 880.24 671.90 885.84 664.92 894.92 C 657.93 904.00 652.98 912.37 649.26 923.26 C 645.53 934.14 641.71 944.86 640.00 957.00 C 638.29 969.14 640.55 986.82 642.67 998.33 C 644.79 1009.83 648.65 1021.41 653.68 1031.32 C 658.71 1041.23 663.11 1049.93 669.25 1058.75 C 675.38 1067.58 681.97 1074.87 689.25 1082.75 C 696.53 1090.63 703.95 1097.15 711.75 1104.25 C 719.56 1111.34 727.42 1116.67 735.75 1123.25 C 744.09 1129.82 752.27 1135.28 760.75 1142.25 C 769.24 1149.21 778.23 1152.26 786.77 1160.23 C 795.31 1168.20 804.65 1169.76 813.30 1161.30 C 821.95 1152.84 830.09 1149.73 838.77 1142.77 C 847.45 1135.81 855.48 1130.62 863.77 1123.77 C 872.06 1116.92 879.80 1111.86 887.75 1104.75 C 895.71 1097.65 902.61 1091.03 910.25 1083.25 C 917.89 1075.47 923.74 1067.99 930.23 1059.23 C 936.72 1050.47 940.81 1042.19 946.08 1032.08 C 951.35 1021.97 954.54 1010.79 957.22 999.22 C 959.90 987.66 960.72 971.10 959.00 959.00 C 957.28 946.91 954.51 935.38 950.33 924.67 C 946.15 913.96 942.23 904.75 935.30 895.70 C 928.37 886.64 921.40 880.49 911.23 875.77 C 901.06 871.06 885.76 868.85 874.01 870.01 C 862.26 871.17 850.39 875.32 840.74 880.74 C 831.09 886.17 823.55 892.50 817.75 901.75 C 811.96 911.00 805.43 918.29 801.00 928.00 Z"/>
    </g>
</svg>

