<svg xmlns="http://www.w3.org/2000/svg" xmlns:v="https://svgstorm.com" viewBox="0 0 1600 1600" width="1600" height="1600">
    <g fill="None" fill-opacity="0.0" stroke="#FAD3D8" stroke-opacity="1.00" stroke-width="0.3"><path d=" M 0.00 1600.00  L 1600.00 1600.00 L 1600.00 0.00 L 0.00 0.00 L 0.00 1600.00 M 783.00 395.00  C 783.08 395.49 783.00 396.00 783.00 396.00 C 797.41 413.98 794.15 443.28 796.00 466.00 C 797.85 488.72 791.08 516.65 784.08 537.08 C 777.07 557.50 769.24 573.89 754.25 590.25 C 739.26 606.61 723.14 618.00 700.98 620.98 C 678.81 623.96 653.71 615.69 636.25 602.75 C 618.80 589.80 608.73 576.66 596.74 559.26 C 584.75 541.85 576.83 522.86 570.00 502.00 C 563.18 481.14 559.95 451.50 561.33 428.33 C 562.71 405.16 569.39 384.14 581.75 365.75 C 594.11 347.36 606.10 335.05 625.23 325.23 C 644.36 315.41 674.57 310.85 696.00 315.00 C 717.43 319.15 735.11 329.22 750.25 343.75 C 765.38 358.28 779.58 374.36 783.00 395.00 M 815.00 405.00  C 815.01 404.50 815.00 404.00 815.00 404.00 C 815.64 387.11 828.22 372.91 836.75 358.75 C 845.28 344.59 858.64 335.94 873.08 327.08 C 887.51 318.21 910.03 313.42 928.00 314.00 C 945.97 314.58 966.17 318.87 981.08 327.92 C 995.98 336.98 1006.46 345.74 1016.75 360.25 C 1027.05 374.76 1033.59 389.98 1037.32 407.68 C 1041.05 425.38 1041.42 452.11 1038.02 470.02 C 1034.63 487.94 1029.84 506.65 1023.03 523.03 C 1016.21 539.40 1008.53 552.65 998.75 566.75 C 988.96 580.84 979.41 590.02 965.75 600.75 C 952.09 611.49 936.16 619.67 918.00 621.00 C 899.84 622.33 878.30 617.61 864.30 606.70 C 850.31 595.78 841.47 586.32 832.70 571.31 C 823.92 556.29 816.42 541.26 812.08 523.92 C 807.73 506.59 803.18 481.76 805.00 463.00 C 806.82 444.24 802.53 419.48 815.00 405.00 M 489.00 482.00  C 539.70 488.13 575.82 530.13 591.98 577.02 C 608.13 623.92 611.68 693.64 566.75 727.75 C 521.82 761.86 463.51 736.79 426.30 702.70 C 389.09 668.62 361.39 614.15 373.00 564.00 C 384.60 513.85 437.00 475.72 489.00 482.00 M 1133.00 482.00  C 1182.14 487.94 1227.93 530.47 1230.00 582.00 C 1232.07 633.54 1201.02 679.35 1162.75 711.75 C 1124.48 744.16 1059.92 758.69 1023.25 716.75 C 986.57 674.81 995.42 608.15 1014.92 561.92 C 1034.42 515.70 1080.01 475.60 1133.00 482.00 M 813.00 632.00  C 832.46 633.88 856.64 637.64 875.07 642.93 C 893.51 648.21 911.37 655.43 928.08 663.92 C 944.78 672.42 959.29 681.56 974.23 691.77 C 989.16 701.98 1000.63 712.51 1014.08 724.92 C 1027.54 737.33 1038.33 749.21 1050.25 762.75 C 1062.16 776.29 1072.59 789.15 1082.92 804.08 C 1093.25 819.02 1101.13 833.91 1109.77 850.23 C 1118.41 866.55 1126.69 882.49 1133.32 900.68 C 1139.95 918.86 1146.29 937.24 1150.93 957.07 C 1155.57 976.91 1158.67 999.63 1160.00 1021.00 C 1161.33 1042.37 1161.00 1070.36 1158.00 1091.00 C 1155.00 1111.64 1149.80 1131.72 1143.08 1150.08 C 1136.36 1168.44 1129.36 1183.96 1118.70 1199.70 C 1108.03 1215.44 1098.92 1226.25 1084.92 1238.92 C 1070.92 1251.59 1058.47 1261.01 1041.30 1269.30 C 1024.14 1277.60 1004.35 1284.56 983.98 1285.98 C 963.60 1287.39 936.71 1285.03 917.78 1279.22 C 898.84 1273.41 880.56 1269.54 863.31 1259.70 C 846.05 1249.85 831.57 1246.42 815.31 1233.70 C 799.04 1220.97 784.86 1235.18 768.75 1244.75 C 752.64 1254.33 736.28 1261.69 718.33 1268.33 C 700.38 1274.96 680.22 1281.50 660.33 1284.33 C 640.43 1287.16 611.97 1286.79 592.98 1282.02 C 573.98 1277.25 556.89 1270.02 541.30 1259.70 C 525.72 1249.37 514.13 1239.52 501.25 1225.75 C 488.37 1211.98 480.40 1199.06 470.70 1182.31 C 460.99 1165.55 456.21 1148.99 450.22 1129.78 C 444.24 1110.57 441.19 1088.01 439.22 1066.78 C 437.26 1045.55 439.12 1018.67 441.93 997.93 C 444.73 977.19 448.83 956.14 453.98 936.98 C 459.12 917.82 466.26 900.24 473.77 882.77 C 481.28 865.31 488.97 849.19 498.31 833.31 C 507.64 817.42 516.04 803.46 527.25 789.25 C 538.47 775.05 549.55 762.55 560.75 748.75 C 571.96 734.95 585.33 725.22 598.75 712.75 C 612.17 700.27 625.78 692.25 641.23 682.23 C 656.68 672.21 670.97 662.82 688.69 655.69 C 706.42 648.56 724.42 641.63 744.22 637.22 C 764.03 632.81 791.25 629.89 813.00 632.00 Z"/>
    </g>
    <g fill="None" fill-opacity="0.0" stroke="#FDE8EB" stroke-opacity="1.00" stroke-width="0.3"><path d=" M 783.00 396.00  C 783.30 410.55 793.12 423.59 792.99 439.01 C 792.87 454.43 795.21 475.78 793.00 491.00 C 790.79 506.22 787.49 520.40 783.08 534.08 C 778.67 547.76 773.34 559.31 766.23 571.23 C 759.12 583.15 752.42 590.72 741.77 599.77 C 731.12 608.82 719.68 614.61 705.99 617.99 C 692.30 621.37 673.70 619.21 660.92 614.08 C 648.15 608.94 637.84 602.31 627.75 593.25 C 617.66 584.18 610.10 576.45 602.70 565.30 C 595.30 554.16 588.08 544.04 582.70 531.31 C 577.31 518.57 572.09 505.39 568.68 491.32 C 565.27 477.25 562.37 460.10 562.02 444.98 C 561.67 429.85 564.27 411.15 568.32 397.32 C 572.37 383.50 577.77 373.30 585.75 361.75 C 593.74 350.21 601.19 343.13 612.75 334.75 C 624.30 326.36 636.11 322.93 650.00 319.00 C 663.90 315.07 684.44 315.40 698.67 318.33 C 712.91 321.26 723.82 327.10 735.75 334.25 C 747.67 341.41 754.06 350.95 763.30 360.70 C 772.55 370.44 774.78 385.43 783.00 395.00 C 779.58 374.36 765.38 358.28 750.25 343.75 C 735.11 329.22 717.43 319.15 696.00 315.00 C 674.57 310.85 644.36 315.41 625.23 325.23 C 606.10 335.05 594.11 347.36 581.75 365.75 C 569.39 384.14 562.71 405.16 561.33 428.33 C 559.95 451.50 563.18 481.14 570.00 502.00 C 576.83 522.86 584.75 541.85 596.74 559.26 C 608.73 576.66 618.80 589.80 636.25 602.75 C 653.71 615.69 678.81 623.96 700.98 620.98 C 723.14 618.00 739.26 606.61 754.25 590.25 C 769.24 573.89 777.07 557.50 784.08 537.08 C 791.08 516.65 797.85 488.72 796.00 466.00 C 794.15 443.28 797.41 413.98 783.00 396.00 Z"/>
    </g>
    <g fill="None" fill-opacity="0.0" stroke="#FDE9EB" stroke-opacity="1.00" stroke-width="0.3"><path d=" M 815.00 404.00  C 823.25 393.84 824.18 376.97 833.30 366.30 C 842.43 355.64 848.66 346.05 860.70 337.70 C 872.74 329.34 884.39 322.75 899.03 319.02 C 913.66 315.30 934.49 314.95 949.22 318.78 C 963.95 322.61 976.60 326.48 988.75 335.25 C 1000.89 344.03 1008.80 351.61 1016.92 364.08 C 1025.04 376.55 1030.15 388.26 1033.98 403.02 C 1037.80 417.78 1039.72 437.34 1038.07 453.07 C 1036.43 468.80 1033.95 486.91 1029.22 501.22 C 1024.49 515.53 1019.75 528.22 1013.08 541.08 C 1006.40 553.93 999.46 564.36 990.25 575.25 C 981.04 586.14 973.87 594.47 961.75 602.75 C 949.64 611.03 936.45 616.07 921.78 618.78 C 907.11 621.49 888.20 617.61 875.31 610.70 C 862.41 603.78 854.25 596.62 844.75 585.25 C 835.24 573.89 830.57 563.71 824.03 549.98 C 817.48 536.24 814.52 521.54 811.00 506.00 C 807.48 490.46 807.81 470.92 807.00 454.00 C 806.19 437.08 814.68 420.96 815.00 405.00 C 802.53 419.48 806.82 444.24 805.00 463.00 C 803.18 481.76 807.73 506.59 812.08 523.92 C 816.42 541.26 823.92 556.29 832.70 571.31 C 841.47 586.32 850.31 595.78 864.30 606.70 C 878.30 617.61 899.84 622.33 918.00 621.00 C 936.16 619.67 952.09 611.49 965.75 600.75 C 979.41 590.02 988.96 580.84 998.75 566.75 C 1008.53 552.65 1016.21 539.40 1023.03 523.03 C 1029.84 506.65 1034.63 487.94 1038.02 470.02 C 1041.42 452.11 1041.05 425.38 1037.32 407.68 C 1033.59 389.98 1027.05 374.76 1016.75 360.25 C 1006.46 345.74 995.98 336.98 981.08 327.92 C 966.17 318.87 945.97 314.58 928.00 314.00 C 910.03 313.42 887.51 318.21 873.08 327.08 C 858.64 335.94 845.28 344.59 836.75 358.75 C 828.22 372.91 815.64 387.11 815.00 404.00 Z"/>
    </g>
    <g fill="None" fill-opacity="0.0" stroke="#FEFEFE" stroke-opacity="1.00" stroke-width="0.3"><path d=" M 783.00 396.00  C 783.00 396.00 783.08 395.49 783.00 395.00 C 774.78 385.43 772.55 370.44 763.30 360.70 C 754.06 350.95 747.67 341.41 735.75 334.25 C 723.82 327.10 712.91 321.26 698.67 318.33 C 684.44 315.40 663.90 315.07 650.00 319.00 C 636.11 322.93 624.30 326.36 612.75 334.75 C 601.19 343.13 593.74 350.21 585.75 361.75 C 577.77 373.30 572.37 383.50 568.32 397.32 C 564.27 411.15 561.67 429.85 562.02 444.98 C 562.37 460.10 565.27 477.25 568.68 491.32 C 572.09 505.39 577.31 518.57 582.70 531.31 C 588.08 544.04 595.30 554.16 602.70 565.30 C 610.10 576.45 617.66 584.18 627.75 593.25 C 637.84 602.31 648.15 608.94 660.92 614.08 C 673.70 619.21 692.30 621.37 705.99 617.99 C 719.68 614.61 731.12 608.82 741.77 599.77 C 752.42 590.72 759.12 583.15 766.23 571.23 C 773.34 559.31 778.67 547.76 783.08 534.08 C 787.49 520.40 790.79 506.22 793.00 491.00 C 795.21 475.78 792.87 454.43 792.99 439.01 C 793.12 423.59 783.30 410.55 783.00 396.00 M 683.00 361.00  C 709.69 363.58 728.91 381.92 739.31 406.69 C 749.70 431.47 753.40 468.37 747.67 495.67 C 741.94 522.97 735.40 544.19 714.75 564.75 C 694.11 585.31 663.20 571.27 646.75 550.25 C 630.30 529.23 619.08 509.30 612.07 482.93 C 605.07 456.55 602.86 422.38 615.78 396.78 C 628.69 371.17 654.18 358.21 683.00 361.00 Z"/>
    </g>
    <g fill="None" fill-opacity="0.0" stroke="#FEFEFE" stroke-opacity="1.00" stroke-width="0.3"><path d=" M 815.00 404.00  C 815.00 404.00 815.01 404.50 815.00 405.00 C 814.68 420.96 806.19 437.08 807.00 454.00 C 807.81 470.92 807.48 490.46 811.00 506.00 C 814.52 521.54 817.48 536.24 824.03 549.98 C 830.57 563.71 835.24 573.89 844.75 585.25 C 854.25 596.62 862.41 603.78 875.31 610.70 C 888.20 617.61 907.11 621.49 921.78 618.78 C 936.45 616.07 949.64 611.03 961.75 602.75 C 973.87 594.47 981.04 586.14 990.25 575.25 C 999.46 564.36 1006.40 553.93 1013.08 541.08 C 1019.75 528.22 1024.49 515.53 1029.22 501.22 C 1033.95 486.91 1036.43 468.80 1038.07 453.07 C 1039.72 437.34 1037.80 417.78 1033.98 403.02 C 1030.15 388.26 1025.04 376.55 1016.92 364.08 C 1008.80 351.61 1000.89 344.03 988.75 335.25 C 976.60 326.48 963.95 322.61 949.22 318.78 C 934.49 314.95 913.66 315.30 899.03 319.02 C 884.39 322.75 872.74 329.34 860.70 337.70 C 848.66 346.05 842.43 355.64 833.30 366.30 C 824.18 376.97 823.25 393.84 815.00 404.00 M 935.00 360.00  C 961.40 364.73 980.54 381.57 989.32 407.68 C 998.10 433.79 994.20 469.49 985.07 495.07 C 975.95 520.66 965.38 537.87 946.25 558.25 C 927.12 578.62 895.22 580.84 878.25 556.75 C 861.27 532.66 854.52 510.12 851.67 481.33 C 848.82 452.54 853.12 419.04 867.30 395.30 C 881.48 371.57 906.35 354.87 935.00 360.00 Z"/>
    </g>
    <g fill="None" fill-opacity="0.0" stroke="#FCD6DB" stroke-opacity="1.00" stroke-width="0.3"><path d=" M 935.00 360.00  C 906.35 354.87 881.48 371.57 867.30 395.30 C 853.12 419.04 848.82 452.54 851.67 481.33 C 854.52 510.12 861.27 532.66 878.25 556.75 C 895.22 580.84 927.12 578.62 946.25 558.25 C 965.38 537.87 975.95 520.66 985.07 495.07 C 994.20 469.49 998.10 433.79 989.32 407.68 C 980.54 381.57 961.40 364.73 935.00 360.00 Z"/>
    </g>
    <g fill="None" fill-opacity="0.0" stroke="#FCD6DB" stroke-opacity="1.00" stroke-width="0.3"><path d=" M 683.00 361.00  C 654.18 358.21 628.69 371.17 615.78 396.78 C 602.86 422.38 605.07 456.55 612.07 482.93 C 619.08 509.30 630.30 529.23 646.75 550.25 C 663.20 571.27 694.11 585.31 714.75 564.75 C 735.40 544.19 741.94 522.97 747.67 495.67 C 753.40 468.37 749.70 431.47 739.31 406.69 C 728.91 381.92 709.69 363.58 683.00 361.00 Z"/>
    </g>
    <g fill="None" fill-opacity="0.0" stroke="#FDEBED" stroke-opacity="1.00" stroke-width="0.3"><path d=" M 489.00 482.00  C 437.00 475.72 384.60 513.85 373.00 564.00 C 361.39 614.15 389.09 668.62 426.30 702.70 C 463.51 736.79 521.82 761.86 566.75 727.75 C 611.68 693.64 608.13 623.92 591.98 577.02 C 575.82 530.13 539.70 488.13 489.00 482.00 M 486.00 483.00  C 535.47 487.79 573.90 527.94 589.78 574.22 C 605.66 620.51 610.13 687.15 568.30 723.30 C 526.48 759.46 467.62 736.72 430.30 703.70 C 392.98 670.67 365.09 617.54 374.33 567.33 C 383.57 517.12 434.87 478.05 486.00 483.00 Z"/>
    </g>
    <g fill="None" fill-opacity="0.0" stroke="#FEFEFE" stroke-opacity="1.00" stroke-width="0.3"><path d=" M 1133.00 482.00  C 1080.01 475.60 1034.42 515.70 1014.92 561.92 C 995.42 608.15 986.57 674.81 1023.25 716.75 C 1059.92 758.69 1124.48 744.16 1162.75 711.75 C 1201.02 679.35 1232.07 633.54 1230.00 582.00 C 1227.93 530.47 1182.14 487.94 1133.00 482.00 M 1130.00 527.00  C 1162.85 531.69 1188.38 563.61 1184.22 596.22 C 1180.06 628.83 1159.81 653.20 1137.25 674.25 C 1114.69 695.29 1072.63 710.59 1053.23 680.77 C 1033.83 650.95 1044.39 608.09 1056.32 579.32 C 1068.26 550.56 1096.69 522.24 1130.00 527.00 Z"/>
    </g>
    <g fill="None" fill-opacity="0.0" stroke="#FEFEFE" stroke-opacity="1.00" stroke-width="0.3"><path d=" M 486.00 483.00  C 434.87 478.05 383.57 517.12 374.33 567.33 C 365.09 617.54 392.98 670.67 430.30 703.70 C 467.62 736.72 526.48 759.46 568.30 723.30 C 610.13 687.15 605.66 620.51 589.78 574.22 C 573.90 527.94 535.47 487.79 486.00 483.00 M 489.00 527.00  C 515.30 532.08 529.91 552.28 542.92 576.08 C 555.94 599.87 559.54 634.37 555.00 664.00 C 550.46 693.63 515.58 705.32 491.31 691.69 C 467.03 678.06 451.84 665.77 436.08 643.92 C 420.32 622.07 409.58 588.01 420.98 562.98 C 432.37 537.94 462.37 521.86 489.00 527.00 Z"/>
    </g>
    <g fill="None" fill-opacity="0.0" stroke="#FDEBED" stroke-opacity="1.00" stroke-width="0.3"><path d=" M 489.00 527.00  C 462.37 521.86 432.37 537.94 420.98 562.98 C 409.58 588.01 420.32 622.07 436.08 643.92 C 451.84 665.77 467.03 678.06 491.31 691.69 C 515.58 705.32 550.46 693.63 555.00 664.00 C 559.54 634.37 555.94 599.87 542.92 576.08 C 529.91 552.28 515.30 532.08 489.00 527.00 M 485.00 529.00  C 515.26 533.91 537.10 561.74 546.77 589.23 C 556.44 616.72 565.64 663.63 540.75 686.75 C 515.86 709.88 479.27 686.16 457.75 666.25 C 436.23 646.33 417.53 616.32 418.93 584.93 C 420.33 553.53 450.90 523.46 485.00 529.00 Z"/>
    </g>
    <g fill="None" fill-opacity="0.0" stroke="#FDEAEC" stroke-opacity="1.00" stroke-width="0.3"><path d=" M 1130.00 527.00  C 1096.69 522.24 1068.26 550.56 1056.32 579.32 C 1044.39 608.09 1033.83 650.95 1053.23 680.77 C 1072.63 710.59 1114.69 695.29 1137.25 674.25 C 1159.81 653.20 1180.06 628.83 1184.22 596.22 C 1188.38 563.61 1162.85 531.69 1130.00 527.00 M 1132.00 529.00  C 1165.07 534.37 1186.01 566.97 1181.08 598.08 C 1176.15 629.19 1158.13 654.35 1135.25 674.25 C 1112.37 694.15 1070.41 708.17 1053.25 677.75 C 1036.08 647.34 1047.29 606.04 1058.97 577.97 C 1070.66 549.91 1099.70 523.76 1132.00 529.00 Z"/>
    </g>
    <g fill="None" fill-opacity="0.0" stroke="#FCD6DB" stroke-opacity="1.00" stroke-width="0.3"><path d=" M 485.00 529.00  C 450.90 523.46 420.33 553.53 418.93 584.93 C 417.53 616.32 436.23 646.33 457.75 666.25 C 479.27 686.16 515.86 709.88 540.75 686.75 C 565.64 663.63 556.44 616.72 546.77 589.23 C 537.10 561.74 515.26 533.91 485.00 529.00 Z"/>
    </g>
    <g fill="None" fill-opacity="0.0" stroke="#FCD6DB" stroke-opacity="1.00" stroke-width="0.3"><path d=" M 1132.00 529.00  C 1099.70 523.76 1070.66 549.91 1058.97 577.97 C 1047.29 606.04 1036.08 647.34 1053.25 677.75 C 1070.41 708.17 1112.37 694.15 1135.25 674.25 C 1158.13 654.35 1176.15 629.19 1181.08 598.08 C 1186.01 566.97 1165.07 534.37 1132.00 529.00 Z"/>
    </g>
    <g fill="None" fill-opacity="0.0" stroke="#FDE9EB" stroke-opacity="1.00" stroke-width="0.3"><path d=" M 813.00 632.00  C 791.25 629.89 764.03 632.81 744.22 637.22 C 724.42 641.63 706.42 648.56 688.69 655.69 C 670.97 662.82 656.68 672.21 641.23 682.23 C 625.78 692.25 612.17 700.27 598.75 712.75 C 585.33 725.22 571.96 734.95 560.75 748.75 C 549.55 762.55 538.47 775.05 527.25 789.25 C 516.04 803.46 507.64 817.42 498.31 833.31 C 488.97 849.19 481.28 865.31 473.77 882.77 C 466.26 900.24 459.12 917.82 453.98 936.98 C 448.83 956.14 444.73 977.19 441.93 997.93 C 439.12 1018.67 437.26 1045.55 439.22 1066.78 C 441.19 1088.01 444.24 1110.57 450.22 1129.78 C 456.21 1148.99 460.99 1165.55 470.70 1182.31 C 480.40 1199.06 488.37 1211.98 501.25 1225.75 C 514.13 1239.52 525.72 1249.37 541.30 1259.70 C 556.89 1270.02 573.98 1277.25 592.98 1282.02 C 611.97 1286.79 640.43 1287.16 660.33 1284.33 C 680.22 1281.50 700.38 1274.96 718.33 1268.33 C 736.28 1261.69 752.64 1254.33 768.75 1244.75 C 784.86 1235.18 799.04 1220.97 815.31 1233.70 C 831.57 1246.42 846.05 1249.85 863.31 1259.70 C 880.56 1269.54 898.84 1273.41 917.78 1279.22 C 936.71 1285.03 963.60 1287.39 983.98 1285.98 C 1004.35 1284.56 1024.14 1277.60 1041.30 1269.30 C 1058.47 1261.01 1070.92 1251.59 1084.92 1238.92 C 1098.92 1226.25 1108.03 1215.44 1118.70 1199.70 C 1129.36 1183.96 1136.36 1168.44 1143.08 1150.08 C 1149.80 1131.72 1155.00 1111.64 1158.00 1091.00 C 1161.00 1070.36 1161.33 1042.37 1160.00 1021.00 C 1158.67 999.63 1155.57 976.91 1150.93 957.07 C 1146.29 937.24 1139.95 918.86 1133.32 900.68 C 1126.69 882.49 1118.41 866.55 1109.77 850.23 C 1101.13 833.91 1093.25 819.02 1082.92 804.08 C 1072.59 789.15 1062.16 776.29 1050.25 762.75 C 1038.33 749.21 1027.54 737.33 1014.08 724.92 C 1000.63 712.51 989.16 701.98 974.23 691.77 C 959.29 681.56 944.78 672.42 928.08 663.92 C 911.37 655.43 893.51 648.21 875.07 642.93 C 856.64 637.64 832.46 633.88 813.00 632.00 M 801.00 1222.00  C 771.89 1242.03 744.37 1255.67 711.78 1268.78 C 679.18 1281.89 630.15 1288.24 594.98 1280.02 C 559.80 1271.81 534.15 1256.11 508.75 1230.25 C 483.35 1204.38 469.16 1179.87 456.69 1146.31 C 444.23 1112.74 439.62 1063.87 441.00 1026.00 C 442.38 988.13 452.11 945.66 463.98 911.98 C 475.84 878.29 490.06 849.53 508.30 820.30 C 526.55 791.08 543.67 768.52 567.75 743.75 C 591.83 718.98 613.41 701.10 642.25 682.25 C 671.08 663.39 702.93 650.91 737.22 641.22 C 771.51 631.53 825.70 631.57 860.22 640.78 C 894.74 649.99 926.60 663.08 955.25 681.75 C 983.89 700.43 1006.35 717.83 1030.25 742.75 C 1054.15 767.67 1071.87 789.74 1090.25 818.75 C 1108.64 847.75 1121.96 876.61 1134.77 910.23 C 1147.59 943.85 1155.44 985.16 1159.00 1023.00 C 1162.56 1060.84 1154.89 1109.64 1143.08 1143.08 C 1131.27 1176.51 1117.78 1202.39 1092.75 1228.75 C 1067.72 1255.11 1041.70 1269.70 1007.00 1279.00 C 972.30 1288.30 923.77 1281.99 890.98 1269.02 C 858.18 1256.06 830.73 1241.23 801.00 1222.00 Z"/>
    </g>
    <g fill="None" fill-opacity="0.0" stroke="#FEFEFE" stroke-opacity="1.00" stroke-width="0.3"><path d=" M 801.00 1222.00  C 830.73 1241.23 858.18 1256.06 890.98 1269.02 C 923.77 1281.99 972.30 1288.30 1007.00 1279.00 C 1041.70 1269.70 1067.72 1255.11 1092.75 1228.75 C 1117.78 1202.39 1131.27 1176.51 1143.08 1143.08 C 1154.89 1109.64 1162.56 1060.84 1159.00 1023.00 C 1155.44 985.16 1147.59 943.85 1134.77 910.23 C 1121.96 876.61 1108.64 847.75 1090.25 818.75 C 1071.87 789.74 1054.15 767.67 1030.25 742.75 C 1006.35 717.83 983.89 700.43 955.25 681.75 C 926.60 663.08 894.74 649.99 860.22 640.78 C 825.70 631.57 771.51 631.53 737.22 641.22 C 702.93 650.91 671.08 663.39 642.25 682.25 C 613.41 701.10 591.83 718.98 567.75 743.75 C 543.67 768.52 526.55 791.08 508.30 820.30 C 490.06 849.53 475.84 878.29 463.98 911.98 C 452.11 945.66 442.38 988.13 441.00 1026.00 C 439.62 1063.87 444.23 1112.74 456.69 1146.31 C 469.16 1179.87 483.35 1204.38 508.75 1230.25 C 534.15 1256.11 559.80 1271.81 594.98 1280.02 C 630.15 1288.24 679.18 1281.89 711.78 1268.78 C 744.37 1255.67 771.89 1242.03 801.00 1222.00 M 800.00 856.00  C 761.78 823.46 699.27 814.58 656.75 843.75 C 614.24 872.93 596.90 924.52 596.00 974.00 C 595.10 1023.48 620.97 1072.17 653.25 1107.75 C 685.53 1143.34 720.63 1167.95 759.00 1193.00 C 755.10 1202.87 741.94 1207.02 731.77 1212.77 C 721.60 1218.52 710.40 1222.75 698.93 1226.93 C 687.45 1231.11 675.60 1235.50 662.78 1237.78 C 649.95 1240.05 632.02 1239.66 618.98 1239.02 C 605.93 1238.39 592.55 1234.50 581.32 1229.68 C 570.10 1224.85 562.21 1218.75 552.75 1211.25 C 543.30 1203.74 536.60 1196.33 528.75 1187.25 C 520.89 1178.17 515.94 1169.47 510.08 1158.92 C 504.23 1148.37 500.17 1137.28 496.67 1125.33 C 493.17 1113.38 488.74 1101.30 487.07 1087.93 C 485.41 1074.55 483.53 1058.21 484.00 1044.00 C 484.47 1029.79 484.71 1013.42 486.99 999.99 C 489.28 986.57 492.10 972.63 495.00 960.00 C 497.89 947.37 502.16 936.10 506.31 924.31 C 510.45 912.51 515.13 902.12 520.30 891.30 C 525.47 880.49 529.81 869.90 535.92 859.92 C 542.03 849.94 547.08 840.19 553.92 830.92 C 560.75 821.65 566.37 812.45 573.77 803.77 C 581.17 795.09 588.27 786.47 596.25 778.25 C 604.23 770.03 611.69 762.60 620.25 755.25 C 628.80 747.89 636.49 740.35 645.75 733.75 C 655.00 727.14 663.78 720.83 673.75 714.75 C 683.71 708.66 694.12 704.32 705.07 699.07 C 716.03 693.82 726.76 689.28 739.07 686.07 C 751.39 682.86 765.66 679.21 779.00 678.00 C 792.34 676.80 810.77 676.25 824.00 678.00 C 837.23 679.75 850.18 683.01 862.23 686.77 C 874.28 690.54 885.88 693.80 896.68 699.32 C 907.47 704.84 917.53 709.42 927.25 715.75 C 936.96 722.09 946.13 727.89 955.25 734.75 C 964.36 741.62 973.34 748.60 981.75 756.25 C 990.16 763.90 997.18 771.78 1005.25 779.75 C 1013.31 787.73 1019.94 796.23 1026.92 805.08 C 1033.89 813.93 1040.41 822.87 1046.75 832.25 C 1053.10 841.63 1059.35 850.88 1064.77 861.23 C 1070.19 871.58 1075.25 881.85 1080.32 892.68 C 1085.39 903.51 1090.23 915.07 1093.98 927.02 C 1097.72 938.98 1102.65 950.13 1105.00 963.00 C 1107.35 975.87 1111.06 988.50 1112.93 1002.07 C 1114.80 1015.65 1114.25 1032.84 1115.00 1047.00 C 1115.75 1061.16 1112.38 1076.83 1111.22 1090.22 C 1110.06 1103.62 1106.31 1116.57 1102.67 1128.67 C 1099.04 1140.78 1093.42 1151.17 1088.03 1162.03 C 1082.63 1172.89 1076.19 1180.41 1068.75 1189.75 C 1061.32 1199.10 1054.20 1205.23 1044.92 1212.92 C 1035.63 1220.61 1026.83 1225.82 1015.33 1230.33 C 1003.83 1234.84 991.39 1239.24 978.00 1240.00 C 964.61 1240.76 947.45 1238.38 935.00 1236.00 C 922.54 1233.62 909.28 1228.73 898.31 1224.69 C 887.33 1220.66 875.86 1214.81 866.75 1209.25 C 857.65 1203.68 838.43 1199.57 847.70 1190.70 C 856.97 1181.83 865.57 1178.60 874.75 1170.75 C 883.92 1162.89 892.22 1157.58 901.23 1150.23 C 910.24 1142.88 918.11 1136.49 926.75 1128.75 C 935.39 1121.01 942.43 1112.73 950.25 1104.25 C 958.07 1095.77 963.97 1087.33 970.75 1077.75 C 977.54 1068.18 981.79 1057.92 987.26 1047.26 C 992.72 1036.59 996.65 1024.49 999.00 1012.00 C 1001.35 999.51 1004.64 983.61 1004.00 970.00 C 1003.36 956.39 1001.58 941.17 998.22 928.78 C 994.86 916.39 990.31 904.85 985.22 893.78 C 980.13 882.71 974.75 874.29 967.25 864.75 C 959.74 855.22 951.57 850.07 941.77 843.23 C 931.97 836.39 921.05 831.89 908.98 829.02 C 896.90 826.16 878.78 824.92 866.00 827.00 C 853.22 829.08 840.62 831.97 829.75 837.75 C 818.88 843.53 808.85 847.11 800.00 856.00 M 801.00 928.00  C 805.43 918.29 811.96 911.00 817.75 901.75 C 823.55 892.50 831.09 886.17 840.74 880.74 C 850.39 875.32 862.26 871.17 874.01 870.01 C 885.76 868.85 901.06 871.06 911.23 875.77 C 921.40 880.49 928.37 886.64 935.30 895.70 C 942.23 904.75 946.15 913.96 950.33 924.67 C 954.51 935.38 957.28 946.91 959.00 959.00 C 960.72 971.10 959.90 987.66 957.22 999.22 C 954.54 1010.79 951.35 1021.97 946.08 1032.08 C 940.81 1042.19 936.72 1050.47 930.23 1059.23 C 923.74 1067.99 917.89 1075.47 910.25 1083.25 C 902.61 1091.03 895.71 1097.65 887.75 1104.75 C 879.80 1111.86 872.06 1116.92 863.77 1123.77 C 855.48 1130.62 847.45 1135.81 838.77 1142.77 C 830.09 1149.73 821.95 1152.84 813.30 1161.30 C 804.65 1169.76 795.31 1168.20 786.77 1160.23 C 778.23 1152.26 769.24 1149.21 760.75 1142.25 C 752.27 1135.28 744.09 1129.82 735.75 1123.25 C 727.42 1116.67 719.56 1111.34 711.75 1104.25 C 703.95 1097.15 696.53 1090.63 689.25 1082.75 C 681.97 1074.87 675.38 1067.58 669.25 1058.75 C 663.11 1049.93 658.71 1041.23 653.68 1031.32 C 648.65 1021.41 644.79 1009.83 642.67 998.33 C 640.55 986.82 638.29 969.14 640.00 957.00 C 641.71 944.86 645.53 934.14 649.26 923.26 C 652.98 912.37 657.93 904.00 664.92 894.92 C 671.90 885.84 679.70 880.24 689.67 875.67 C 699.65 871.11 715.12 868.68 727.00 870.00 C 738.88 871.32 749.80 876.09 759.74 881.26 C 769.69 886.42 775.91 894.13 782.30 902.70 C 788.70 911.27 793.20 921.56 801.00 928.00 Z"/>
    </g>
    <g fill="None" fill-opacity="0.0" stroke="#FEECEE" stroke-opacity="1.00" stroke-width="0.3"><path d=" M 800.00 856.00  C 808.85 847.11 818.88 843.53 829.75 837.75 C 840.62 831.97 853.22 829.08 866.00 827.00 C 878.78 824.92 896.90 826.16 908.98 829.02 C 921.05 831.89 931.97 836.39 941.77 843.23 C 951.57 850.07 959.74 855.22 967.25 864.75 C 974.75 874.29 980.13 882.71 985.22 893.78 C 990.31 904.85 994.86 916.39 998.22 928.78 C 1001.58 941.17 1003.36 956.39 1004.00 970.00 C 1004.64 983.61 1001.35 999.51 999.00 1012.00 C 996.65 1024.49 992.72 1036.59 987.26 1047.26 C 981.79 1057.92 977.54 1068.18 970.75 1077.75 C 963.97 1087.33 958.07 1095.77 950.25 1104.25 C 942.43 1112.73 935.39 1121.01 926.75 1128.75 C 918.11 1136.49 910.24 1142.88 901.23 1150.23 C 892.22 1157.58 883.92 1162.89 874.75 1170.75 C 865.57 1178.60 856.97 1181.83 847.70 1190.70 C 838.43 1199.57 857.65 1203.68 866.75 1209.25 C 875.86 1214.81 887.33 1220.66 898.31 1224.69 C 909.28 1228.73 922.54 1233.62 935.00 1236.00 C 947.45 1238.38 964.61 1240.76 978.00 1240.00 C 991.39 1239.24 1003.83 1234.84 1015.33 1230.33 C 1026.83 1225.82 1035.63 1220.61 1044.92 1212.92 C 1054.20 1205.23 1061.32 1199.10 1068.75 1189.75 C 1076.19 1180.41 1082.63 1172.89 1088.03 1162.03 C 1093.42 1151.17 1099.04 1140.78 1102.67 1128.67 C 1106.31 1116.57 1110.06 1103.62 1111.22 1090.22 C 1112.38 1076.83 1115.75 1061.16 1115.00 1047.00 C 1114.25 1032.84 1114.80 1015.65 1112.93 1002.07 C 1111.06 988.50 1107.35 975.87 1105.00 963.00 C 1102.65 950.13 1097.72 938.98 1093.98 927.02 C 1090.23 915.07 1085.39 903.51 1080.32 892.68 C 1075.25 881.85 1070.19 871.58 1064.77 861.23 C 1059.35 850.88 1053.10 841.63 1046.75 832.25 C 1040.41 822.87 1033.89 813.93 1026.92 805.08 C 1019.94 796.23 1013.31 787.73 1005.25 779.75 C 997.18 771.78 990.16 763.90 981.75 756.25 C 973.34 748.60 964.36 741.62 955.25 734.75 C 946.13 727.89 936.96 722.09 927.25 715.75 C 917.53 709.42 907.47 704.84 896.68 699.32 C 885.88 693.80 874.28 690.54 862.23 686.77 C 850.18 683.01 837.23 679.75 824.00 678.00 C 810.77 676.25 792.34 676.80 779.00 678.00 C 765.66 679.21 751.39 682.86 739.07 686.07 C 726.76 689.28 716.03 693.82 705.07 699.07 C 694.12 704.32 683.71 708.66 673.75 714.75 C 663.78 720.83 655.00 727.14 645.75 733.75 C 636.49 740.35 628.80 747.89 620.25 755.25 C 611.69 762.60 604.23 770.03 596.25 778.25 C 588.27 786.47 581.17 795.09 573.77 803.77 C 566.37 812.45 560.75 821.65 553.92 830.92 C 547.08 840.19 542.03 849.94 535.92 859.92 C 529.81 869.90 525.47 880.49 520.30 891.30 C 515.13 902.12 510.45 912.51 506.31 924.31 C 502.16 936.10 497.89 947.37 495.00 960.00 C 492.10 972.63 489.28 986.57 486.99 999.99 C 484.71 1013.42 484.47 1029.79 484.00 1044.00 C 483.53 1058.21 485.41 1074.55 487.07 1087.93 C 488.74 1101.30 493.17 1113.38 496.67 1125.33 C 500.17 1137.28 504.23 1148.37 510.08 1158.92 C 515.94 1169.47 520.89 1178.17 528.75 1187.25 C 536.60 1196.33 543.30 1203.74 552.75 1211.25 C 562.21 1218.75 570.10 1224.85 581.32 1229.68 C 592.55 1234.50 605.93 1238.39 618.98 1239.02 C 632.02 1239.66 649.95 1240.05 662.78 1237.78 C 675.60 1235.50 687.45 1231.11 698.93 1226.93 C 710.40 1222.75 721.60 1218.52 731.77 1212.77 C 741.94 1207.02 755.10 1202.87 759.00 1193.00 C 720.63 1167.95 685.53 1143.34 653.25 1107.75 C 620.97 1072.17 595.10 1023.48 596.00 974.00 C 596.90 924.52 614.24 872.93 656.75 843.75 C 699.27 814.58 761.78 823.46 800.00 856.00 M 845.00 1196.00  C 850.28 1189.64 858.85 1185.28 865.75 1179.75 C 872.64 1174.21 880.31 1168.85 887.25 1163.25 C 894.18 1157.65 901.42 1153.10 908.23 1147.23 C 915.04 1141.36 922.38 1135.70 928.75 1129.75 C 935.11 1123.80 941.15 1117.74 947.25 1111.25 C 953.34 1104.76 958.50 1097.12 963.92 1089.92 C 969.34 1082.72 974.55 1076.08 978.92 1067.92 C 983.29 1059.76 988.08 1051.83 991.77 1042.77 C 995.47 1033.71 998.25 1024.74 1000.78 1014.78 C 1003.30 1004.82 1004.99 992.78 1006.00 982.00 C 1007.00 971.21 1005.14 957.38 1004.00 947.00 C 1002.86 936.62 998.89 926.47 996.08 916.92 C 993.27 907.38 989.38 899.33 985.25 890.75 C 981.11 882.18 976.55 874.74 970.75 867.25 C 964.95 859.76 959.80 853.75 952.25 847.75 C 944.70 841.75 937.74 838.19 928.97 834.03 C 920.21 829.87 909.36 826.68 899.33 825.67 C 889.30 824.66 875.07 821.89 865.00 825.00 C 854.93 828.11 844.04 828.23 834.93 832.93 C 825.81 837.63 818.85 838.52 810.77 845.77 C 802.69 853.02 795.79 852.88 787.92 845.08 C 780.04 837.28 772.08 837.82 762.93 833.07 C 753.78 828.33 743.33 826.95 732.98 825.02 C 722.62 823.09 709.02 824.15 698.98 825.98 C 688.94 827.80 677.77 829.50 668.98 833.98 C 660.18 838.45 654.12 842.83 646.75 848.75 C 639.39 854.68 633.52 860.23 627.75 867.75 C 621.98 875.27 618.19 883.14 613.70 891.69 C 609.20 900.25 606.29 908.50 602.74 917.74 C 599.20 926.98 597.77 938.68 596.00 949.00 C 594.23 959.32 593.23 973.14 594.00 984.00 C 594.77 994.86 597.38 1006.18 599.92 1016.08 C 602.47 1025.97 604.59 1035.26 608.93 1044.07 C 613.27 1052.89 617.32 1060.95 621.92 1069.08 C 626.53 1077.20 631.47 1083.79 636.77 1091.23 C 642.07 1098.67 648.38 1104.69 654.25 1111.75 C 660.12 1118.81 666.22 1123.99 672.75 1130.25 C 679.29 1136.50 686.35 1142.06 693.25 1147.75 C 700.14 1153.45 707.04 1158.46 714.08 1163.92 C 721.13 1169.38 728.76 1174.73 735.75 1180.25 C 742.75 1185.77 752.14 1189.86 757.00 1197.00 C 716.71 1219.28 666.18 1243.70 618.00 1238.00 C 569.82 1232.30 537.38 1201.92 513.08 1160.92 C 488.79 1119.92 482.41 1055.56 488.33 1007.33 C 494.25 959.10 510.58 911.30 532.77 869.77 C 554.96 828.24 576.97 799.35 610.75 765.75 C 644.53 732.15 678.82 712.55 722.03 694.03 C 765.23 675.50 831.58 674.79 875.07 692.93 C 918.57 711.06 953.41 730.80 987.10 763.90 C 1020.78 797.00 1043.39 826.19 1065.77 867.23 C 1088.15 908.27 1104.41 955.97 1110.93 1004.07 C 1117.45 1052.18 1111.57 1116.10 1087.75 1157.75 C 1063.93 1199.39 1033.64 1230.50 985.00 1237.00 C 936.36 1243.50 885.38 1219.84 845.00 1196.00 Z"/>
    </g>
    <g fill="None" fill-opacity="0.0" stroke="#FDD6DB" stroke-opacity="1.00" stroke-width="0.3"><path d=" M 845.00 1196.00  C 885.38 1219.84 936.36 1243.50 985.00 1237.00 C 1033.64 1230.50 1063.93 1199.39 1087.75 1157.75 C 1111.57 1116.10 1117.45 1052.18 1110.93 1004.07 C 1104.41 955.97 1088.15 908.27 1065.77 867.23 C 1043.39 826.19 1020.78 797.00 987.10 763.90 C 953.41 730.80 918.57 711.06 875.07 692.93 C 831.58 674.79 765.23 675.50 722.03 694.03 C 678.82 712.55 644.53 732.15 610.75 765.75 C 576.97 799.35 554.96 828.24 532.77 869.77 C 510.58 911.30 494.25 959.10 488.33 1007.33 C 482.41 1055.56 488.79 1119.92 513.08 1160.92 C 537.38 1201.92 569.82 1232.30 618.00 1238.00 C 666.18 1243.70 716.71 1219.28 757.00 1197.00 C 752.14 1189.86 742.75 1185.77 735.75 1180.25 C 728.76 1174.73 721.13 1169.38 714.08 1163.92 C 707.04 1158.46 700.14 1153.45 693.25 1147.75 C 686.35 1142.06 679.29 1136.50 672.75 1130.25 C 666.22 1123.99 660.12 1118.81 654.25 1111.75 C 648.38 1104.69 642.07 1098.67 636.77 1091.23 C 631.47 1083.79 626.53 1077.20 621.92 1069.08 C 617.32 1060.95 613.27 1052.89 608.93 1044.07 C 604.59 1035.26 602.47 1025.97 599.92 1016.08 C 597.38 1006.18 594.77 994.86 594.00 984.00 C 593.23 973.14 594.23 959.32 596.00 949.00 C 597.77 938.68 599.20 926.98 602.74 917.74 C 606.29 908.50 609.20 900.25 613.70 891.69 C 618.19 883.14 621.98 875.27 627.75 867.75 C 633.52 860.23 639.39 854.68 646.75 848.75 C 654.12 842.83 660.18 838.45 668.98 833.98 C 677.77 829.50 688.94 827.80 698.98 825.98 C 709.02 824.15 722.62 823.09 732.98 825.02 C 743.33 826.95 753.78 828.33 762.93 833.07 C 772.08 837.82 780.04 837.28 787.92 845.08 C 795.79 852.88 802.69 853.02 810.77 845.77 C 818.85 838.52 825.81 837.63 834.93 832.93 C 844.04 828.23 854.93 828.11 865.00 825.00 C 875.07 821.89 889.30 824.66 899.33 825.67 C 909.36 826.68 920.21 829.87 928.97 834.03 C 937.74 838.19 944.70 841.75 952.25 847.75 C 959.80 853.75 964.95 859.76 970.75 867.25 C 976.55 874.74 981.11 882.18 985.25 890.75 C 989.38 899.33 993.27 907.38 996.08 916.92 C 998.89 926.47 1002.86 936.62 1004.00 947.00 C 1005.14 957.38 1007.00 971.21 1006.00 982.00 C 1004.99 992.78 1003.30 1004.82 1000.78 1014.78 C 998.25 1024.74 995.47 1033.71 991.77 1042.77 C 988.08 1051.83 983.29 1059.76 978.92 1067.92 C 974.55 1076.08 969.34 1082.72 963.92 1089.92 C 958.50 1097.12 953.34 1104.76 947.25 1111.25 C 941.15 1117.74 935.11 1123.80 928.75 1129.75 C 922.38 1135.70 915.04 1141.36 908.23 1147.23 C 901.42 1153.10 894.18 1157.65 887.25 1163.25 C 880.31 1168.85 872.64 1174.21 865.75 1179.75 C 858.85 1185.28 850.28 1189.64 845.00 1196.00 Z"/>
    </g>
    <g fill="None" fill-opacity="0.0" stroke="#FCD6DB" stroke-opacity="1.00" stroke-width="0.3"><path d=" M 801.00 928.00  C 793.20 921.56 788.70 911.27 782.30 902.70 C 775.91 894.13 769.69 886.42 759.74 881.26 C 749.80 876.09 738.88 871.32 727.00 870.00 C 715.12 868.68 699.65 871.11 689.67 875.67 C 679.70 880.24 671.90 885.84 664.92 894.92 C 657.93 904.00 652.98 912.37 649.26 923.26 C 645.53 934.14 641.71 944.86 640.00 957.00 C 638.29 969.14 640.55 986.82 642.67 998.33 C 644.79 1009.83 648.65 1021.41 653.68 1031.32 C 658.71 1041.23 663.11 1049.93 669.25 1058.75 C 675.38 1067.58 681.97 1074.87 689.25 1082.75 C 696.53 1090.63 703.95 1097.15 711.75 1104.25 C 719.56 1111.34 727.42 1116.67 735.75 1123.25 C 744.09 1129.82 752.27 1135.28 760.75 1142.25 C 769.24 1149.21 778.23 1152.26 786.77 1160.23 C 795.31 1168.20 804.65 1169.76 813.30 1161.30 C 821.95 1152.84 830.09 1149.73 838.77 1142.77 C 847.45 1135.81 855.48 1130.62 863.77 1123.77 C 872.06 1116.92 879.80 1111.86 887.75 1104.75 C 895.71 1097.65 902.61 1091.03 910.25 1083.25 C 917.89 1075.47 923.74 1067.99 930.23 1059.23 C 936.72 1050.47 940.81 1042.19 946.08 1032.08 C 951.35 1021.97 954.54 1010.79 957.22 999.22 C 959.90 987.66 960.72 971.10 959.00 959.00 C 957.28 946.91 954.51 935.38 950.33 924.67 C 946.15 913.96 942.23 904.75 935.30 895.70 C 928.37 886.64 921.40 880.49 911.23 875.77 C 901.06 871.06 885.76 868.85 874.01 870.01 C 862.26 871.17 850.39 875.32 840.74 880.74 C 831.09 886.17 823.55 892.50 817.75 901.75 C 811.96 911.00 805.43 918.29 801.00 928.00 Z"/>
    </g>
    <g fill="#FAD3D8" fill-opacity="1.00" stroke="None">
        <path d=" M 0.00 1600.00  L 1600.00 1600.00 L 1600.00 0.00 L 0.00 0.00 L 0.00 1600.00 M 783.00 395.00  C 783.08 395.49 783.00 396.00 783.00 396.00 C 797.41 413.98 794.15 443.28 796.00 466.00 C 797.85 488.72 791.08 516.65 784.08 537.08 C 777.07 557.50 769.24 573.89 754.25 590.25 C 739.26 606.61 723.14 618.00 700.98 620.98 C 678.81 623.96 653.71 615.69 636.25 602.75 C 618.80 589.80 608.73 576.66 596.74 559.26 C 584.75 541.85 576.83 522.86 570.00 502.00 C 563.18 481.14 559.95 451.50 561.33 428.33 C 562.71 405.16 569.39 384.14 581.75 365.75 C 594.11 347.36 606.10 335.05 625.23 325.23 C 644.36 315.41 674.57 310.85 696.00 315.00 C 717.43 319.15 735.11 329.22 750.25 343.75 C 765.38 358.28 779.58 374.36 783.00 395.00 M 815.00 405.00  C 815.01 404.50 815.00 404.00 815.00 404.00 C 815.64 387.11 828.22 372.91 836.75 358.75 C 845.28 344.59 858.64 335.94 873.08 327.08 C 887.51 318.21 910.03 313.42 928.00 314.00 C 945.97 314.58 966.17 318.87 981.08 327.92 C 995.98 336.98 1006.46 345.74 1016.75 360.25 C 1027.05 374.76 1033.59 389.98 1037.32 407.68 C 1041.05 425.38 1041.42 452.11 1038.02 470.02 C 1034.63 487.94 1029.84 506.65 1023.03 523.03 C 1016.21 539.40 1008.53 552.65 998.75 566.75 C 988.96 580.84 979.41 590.02 965.75 600.75 C 952.09 611.49 936.16 619.67 918.00 621.00 C 899.84 622.33 878.30 617.61 864.30 606.70 C 850.31 595.78 841.47 586.32 832.70 571.31 C 823.92 556.29 816.42 541.26 812.08 523.92 C 807.73 506.59 803.18 481.76 805.00 463.00 C 806.82 444.24 802.53 419.48 815.00 405.00 M 489.00 482.00  C 539.70 488.13 575.82 530.13 591.98 577.02 C 608.13 623.92 611.68 693.64 566.75 727.75 C 521.82 761.86 463.51 736.79 426.30 702.70 C 389.09 668.62 361.39 614.15 373.00 564.00 C 384.60 513.85 437.00 475.72 489.00 482.00 M 1133.00 482.00  C 1182.14 487.94 1227.93 530.47 1230.00 582.00 C 1232.07 633.54 1201.02 679.35 1162.75 711.75 C 1124.48 744.16 1059.92 758.69 1023.25 716.75 C 986.57 674.81 995.42 608.15 1014.92 561.92 C 1034.42 515.70 1080.01 475.60 1133.00 482.00 M 813.00 632.00  C 832.46 633.88 856.64 637.64 875.07 642.93 C 893.51 648.21 911.37 655.43 928.08 663.92 C 944.78 672.42 959.29 681.56 974.23 691.77 C 989.16 701.98 1000.63 712.51 1014.08 724.92 C 1027.54 737.33 1038.33 749.21 1050.25 762.75 C 1062.16 776.29 1072.59 789.15 1082.92 804.08 C 1093.25 819.02 1101.13 833.91 1109.77 850.23 C 1118.41 866.55 1126.69 882.49 1133.32 900.68 C 1139.95 918.86 1146.29 937.24 1150.93 957.07 C 1155.57 976.91 1158.67 999.63 1160.00 1021.00 C 1161.33 1042.37 1161.00 1070.36 1158.00 1091.00 C 1155.00 1111.64 1149.80 1131.72 1143.08 1150.08 C 1136.36 1168.44 1129.36 1183.96 1118.70 1199.70 C 1108.03 1215.44 1098.92 1226.25 1084.92 1238.92 C 1070.92 1251.59 1058.47 1261.01 1041.30 1269.30 C 1024.14 1277.60 1004.35 1284.56 983.98 1285.98 C 963.60 1287.39 936.71 1285.03 917.78 1279.22 C 898.84 1273.41 880.56 1269.54 863.31 1259.70 C 846.05 1249.85 831.57 1246.42 815.31 1233.70 C 799.04 1220.97 784.86 1235.18 768.75 1244.75 C 752.64 1254.33 736.28 1261.69 718.33 1268.33 C 700.38 1274.96 680.22 1281.50 660.33 1284.33 C 640.43 1287.16 611.97 1286.79 592.98 1282.02 C 573.98 1277.25 556.89 1270.02 541.30 1259.70 C 525.72 1249.37 514.13 1239.52 501.25 1225.75 C 488.37 1211.98 480.40 1199.06 470.70 1182.31 C 460.99 1165.55 456.21 1148.99 450.22 1129.78 C 444.24 1110.57 441.19 1088.01 439.22 1066.78 C 437.26 1045.55 439.12 1018.67 441.93 997.93 C 444.73 977.19 448.83 956.14 453.98 936.98 C 459.12 917.82 466.26 900.24 473.77 882.77 C 481.28 865.31 488.97 849.19 498.31 833.31 C 507.64 817.42 516.04 803.46 527.25 789.25 C 538.47 775.05 549.55 762.55 560.75 748.75 C 571.96 734.95 585.33 725.22 598.75 712.75 C 612.17 700.27 625.78 692.25 641.23 682.23 C 656.68 672.21 670.97 662.82 688.69 655.69 C 706.42 648.56 724.42 641.63 744.22 637.22 C 764.03 632.81 791.25 629.89 813.00 632.00 Z"/>
    </g>
    <g fill="#FDE8EB" fill-opacity="1.00" stroke="None">
        <path d=" M 783.00 396.00  C 783.30 410.55 793.12 423.59 792.99 439.01 C 792.87 454.43 795.21 475.78 793.00 491.00 C 790.79 506.22 787.49 520.40 783.08 534.08 C 778.67 547.76 773.34 559.31 766.23 571.23 C 759.12 583.15 752.42 590.72 741.77 599.77 C 731.12 608.82 719.68 614.61 705.99 617.99 C 692.30 621.37 673.70 619.21 660.92 614.08 C 648.15 608.94 637.84 602.31 627.75 593.25 C 617.66 584.18 610.10 576.45 602.70 565.30 C 595.30 554.16 588.08 544.04 582.70 531.31 C 577.31 518.57 572.09 505.39 568.68 491.32 C 565.27 477.25 562.37 460.10 562.02 444.98 C 561.67 429.85 564.27 411.15 568.32 397.32 C 572.37 383.50 577.77 373.30 585.75 361.75 C 593.74 350.21 601.19 343.13 612.75 334.75 C 624.30 326.36 636.11 322.93 650.00 319.00 C 663.90 315.07 684.44 315.40 698.67 318.33 C 712.91 321.26 723.82 327.10 735.75 334.25 C 747.67 341.41 754.06 350.95 763.30 360.70 C 772.55 370.44 774.78 385.43 783.00 395.00 C 779.58 374.36 765.38 358.28 750.25 343.75 C 735.11 329.22 717.43 319.15 696.00 315.00 C 674.57 310.85 644.36 315.41 625.23 325.23 C 606.10 335.05 594.11 347.36 581.75 365.75 C 569.39 384.14 562.71 405.16 561.33 428.33 C 559.95 451.50 563.18 481.14 570.00 502.00 C 576.83 522.86 584.75 541.85 596.74 559.26 C 608.73 576.66 618.80 589.80 636.25 602.75 C 653.71 615.69 678.81 623.96 700.98 620.98 C 723.14 618.00 739.26 606.61 754.25 590.25 C 769.24 573.89 777.07 557.50 784.08 537.08 C 791.08 516.65 797.85 488.72 796.00 466.00 C 794.15 443.28 797.41 413.98 783.00 396.00 Z"/>
    </g>
    <g fill="#FDE9EB" fill-opacity="1.00" stroke="None">
        <path d=" M 815.00 404.00  C 823.25 393.84 824.18 376.97 833.30 366.30 C 842.43 355.64 848.66 346.05 860.70 337.70 C 872.74 329.34 884.39 322.75 899.03 319.02 C 913.66 315.30 934.49 314.95 949.22 318.78 C 963.95 322.61 976.60 326.48 988.75 335.25 C 1000.89 344.03 1008.80 351.61 1016.92 364.08 C 1025.04 376.55 1030.15 388.26 1033.98 403.02 C 1037.80 417.78 1039.72 437.34 1038.07 453.07 C 1036.43 468.80 1033.95 486.91 1029.22 501.22 C 1024.49 515.53 1019.75 528.22 1013.08 541.08 C 1006.40 553.93 999.46 564.36 990.25 575.25 C 981.04 586.14 973.87 594.47 961.75 602.75 C 949.64 611.03 936.45 616.07 921.78 618.78 C 907.11 621.49 888.20 617.61 875.31 610.70 C 862.41 603.78 854.25 596.62 844.75 585.25 C 835.24 573.89 830.57 563.71 824.03 549.98 C 817.48 536.24 814.52 521.54 811.00 506.00 C 807.48 490.46 807.81 470.92 807.00 454.00 C 806.19 437.08 814.68 420.96 815.00 405.00 C 802.53 419.48 806.82 444.24 805.00 463.00 C 803.18 481.76 807.73 506.59 812.08 523.92 C 816.42 541.26 823.92 556.29 832.70 571.31 C 841.47 586.32 850.31 595.78 864.30 606.70 C 878.30 617.61 899.84 622.33 918.00 621.00 C 936.16 619.67 952.09 611.49 965.75 600.75 C 979.41 590.02 988.96 580.84 998.75 566.75 C 1008.53 552.65 1016.21 539.40 1023.03 523.03 C 1029.84 506.65 1034.63 487.94 1038.02 470.02 C 1041.42 452.11 1041.05 425.38 1037.32 407.68 C 1033.59 389.98 1027.05 374.76 1016.75 360.25 C 1006.46 345.74 995.98 336.98 981.08 327.92 C 966.17 318.87 945.97 314.58 928.00 314.00 C 910.03 313.42 887.51 318.21 873.08 327.08 C 858.64 335.94 845.28 344.59 836.75 358.75 C 828.22 372.91 815.64 387.11 815.00 404.00 Z"/>
    </g>
    <g fill="#FEFEFE" fill-opacity="1.00" stroke="None">
        <path d=" M 783.00 396.00  C 783.00 396.00 783.08 395.49 783.00 395.00 C 774.78 385.43 772.55 370.44 763.30 360.70 C 754.06 350.95 747.67 341.41 735.75 334.25 C 723.82 327.10 712.91 321.26 698.67 318.33 C 684.44 315.40 663.90 315.07 650.00 319.00 C 636.11 322.93 624.30 326.36 612.75 334.75 C 601.19 343.13 593.74 350.21 585.75 361.75 C 577.77 373.30 572.37 383.50 568.32 397.32 C 564.27 411.15 561.67 429.85 562.02 444.98 C 562.37 460.10 565.27 477.25 568.68 491.32 C 572.09 505.39 577.31 518.57 582.70 531.31 C 588.08 544.04 595.30 554.16 602.70 565.30 C 610.10 576.45 617.66 584.18 627.75 593.25 C 637.84 602.31 648.15 608.94 660.92 614.08 C 673.70 619.21 692.30 621.37 705.99 617.99 C 719.68 614.61 731.12 608.82 741.77 599.77 C 752.42 590.72 759.12 583.15 766.23 571.23 C 773.34 559.31 778.67 547.76 783.08 534.08 C 787.49 520.40 790.79 506.22 793.00 491.00 C 795.21 475.78 792.87 454.43 792.99 439.01 C 793.12 423.59 783.30 410.55 783.00 396.00 M 683.00 361.00  C 709.69 363.58 728.91 381.92 739.31 406.69 C 749.70 431.47 753.40 468.37 747.67 495.67 C 741.94 522.97 735.40 544.19 714.75 564.75 C 694.11 585.31 663.20 571.27 646.75 550.25 C 630.30 529.23 619.08 509.30 612.07 482.93 C 605.07 456.55 602.86 422.38 615.78 396.78 C 628.69 371.17 654.18 358.21 683.00 361.00 Z"/>
    </g>
    <g fill="#FEFEFE" fill-opacity="1.00" stroke="None">
        <path d=" M 815.00 404.00  C 815.00 404.00 815.01 404.50 815.00 405.00 C 814.68 420.96 806.19 437.08 807.00 454.00 C 807.81 470.92 807.48 490.46 811.00 506.00 C 814.52 521.54 817.48 536.24 824.03 549.98 C 830.57 563.71 835.24 573.89 844.75 585.25 C 854.25 596.62 862.41 603.78 875.31 610.70 C 888.20 617.61 907.11 621.49 921.78 618.78 C 936.45 616.07 949.64 611.03 961.75 602.75 C 973.87 594.47 981.04 586.14 990.25 575.25 C 999.46 564.36 1006.40 553.93 1013.08 541.08 C 1019.75 528.22 1024.49 515.53 1029.22 501.22 C 1033.95 486.91 1036.43 468.80 1038.07 453.07 C 1039.72 437.34 1037.80 417.78 1033.98 403.02 C 1030.15 388.26 1025.04 376.55 1016.92 364.08 C 1008.80 351.61 1000.89 344.03 988.75 335.25 C 976.60 326.48 963.95 322.61 949.22 318.78 C 934.49 314.95 913.66 315.30 899.03 319.02 C 884.39 322.75 872.74 329.34 860.70 337.70 C 848.66 346.05 842.43 355.64 833.30 366.30 C 824.18 376.97 823.25 393.84 815.00 404.00 M 935.00 360.00  C 961.40 364.73 980.54 381.57 989.32 407.68 C 998.10 433.79 994.20 469.49 985.07 495.07 C 975.95 520.66 965.38 537.87 946.25 558.25 C 927.12 578.62 895.22 580.84 878.25 556.75 C 861.27 532.66 854.52 510.12 851.67 481.33 C 848.82 452.54 853.12 419.04 867.30 395.30 C 881.48 371.57 906.35 354.87 935.00 360.00 Z"/>
    </g>
    <g fill="#FCD6DB" fill-opacity="1.00" stroke="None">
        <path d=" M 935.00 360.00  C 906.35 354.87 881.48 371.57 867.30 395.30 C 853.12 419.04 848.82 452.54 851.67 481.33 C 854.52 510.12 861.27 532.66 878.25 556.75 C 895.22 580.84 927.12 578.62 946.25 558.25 C 965.38 537.87 975.95 520.66 985.07 495.07 C 994.20 469.49 998.10 433.79 989.32 407.68 C 980.54 381.57 961.40 364.73 935.00 360.00 Z"/>
    </g>
    <g fill="#FCD6DB" fill-opacity="1.00" stroke="None">
        <path d=" M 683.00 361.00  C 654.18 358.21 628.69 371.17 615.78 396.78 C 602.86 422.38 605.07 456.55 612.07 482.93 C 619.08 509.30 630.30 529.23 646.75 550.25 C 663.20 571.27 694.11 585.31 714.75 564.75 C 735.40 544.19 741.94 522.97 747.67 495.67 C 753.40 468.37 749.70 431.47 739.31 406.69 C 728.91 381.92 709.69 363.58 683.00 361.00 Z"/>
    </g>
    <g fill="#FDEBED" fill-opacity="1.00" stroke="None">
        <path d=" M 489.00 482.00  C 437.00 475.72 384.60 513.85 373.00 564.00 C 361.39 614.15 389.09 668.62 426.30 702.70 C 463.51 736.79 521.82 761.86 566.75 727.75 C 611.68 693.64 608.13 623.92 591.98 577.02 C 575.82 530.13 539.70 488.13 489.00 482.00 M 486.00 483.00  C 535.47 487.79 573.90 527.94 589.78 574.22 C 605.66 620.51 610.13 687.15 568.30 723.30 C 526.48 759.46 467.62 736.72 430.30 703.70 C 392.98 670.67 365.09 617.54 374.33 567.33 C 383.57 517.12 434.87 478.05 486.00 483.00 Z"/>
    </g>
    <g fill="#FEFEFE" fill-opacity="1.00" stroke="None">
        <path d=" M 1133.00 482.00  C 1080.01 475.60 1034.42 515.70 1014.92 561.92 C 995.42 608.15 986.57 674.81 1023.25 716.75 C 1059.92 758.69 1124.48 744.16 1162.75 711.75 C 1201.02 679.35 1232.07 633.54 1230.00 582.00 C 1227.93 530.47 1182.14 487.94 1133.00 482.00 M 1130.00 527.00  C 1162.85 531.69 1188.38 563.61 1184.22 596.22 C 1180.06 628.83 1159.81 653.20 1137.25 674.25 C 1114.69 695.29 1072.63 710.59 1053.23 680.77 C 1033.83 650.95 1044.39 608.09 1056.32 579.32 C 1068.26 550.56 1096.69 522.24 1130.00 527.00 Z"/>
    </g>
    <g fill="#FEFEFE" fill-opacity="1.00" stroke="None">
        <path d=" M 486.00 483.00  C 434.87 478.05 383.57 517.12 374.33 567.33 C 365.09 617.54 392.98 670.67 430.30 703.70 C 467.62 736.72 526.48 759.46 568.30 723.30 C 610.13 687.15 605.66 620.51 589.78 574.22 C 573.90 527.94 535.47 487.79 486.00 483.00 M 489.00 527.00  C 515.30 532.08 529.91 552.28 542.92 576.08 C 555.94 599.87 559.54 634.37 555.00 664.00 C 550.46 693.63 515.58 705.32 491.31 691.69 C 467.03 678.06 451.84 665.77 436.08 643.92 C 420.32 622.07 409.58 588.01 420.98 562.98 C 432.37 537.94 462.37 521.86 489.00 527.00 Z"/>
    </g>
    <g fill="#FDEBED" fill-opacity="1.00" stroke="None">
        <path d=" M 489.00 527.00  C 462.37 521.86 432.37 537.94 420.98 562.98 C 409.58 588.01 420.32 622.07 436.08 643.92 C 451.84 665.77 467.03 678.06 491.31 691.69 C 515.58 705.32 550.46 693.63 555.00 664.00 C 559.54 634.37 555.94 599.87 542.92 576.08 C 529.91 552.28 515.30 532.08 489.00 527.00 M 485.00 529.00  C 515.26 533.91 537.10 561.74 546.77 589.23 C 556.44 616.72 565.64 663.63 540.75 686.75 C 515.86 709.88 479.27 686.16 457.75 666.25 C 436.23 646.33 417.53 616.32 418.93 584.93 C 420.33 553.53 450.90 523.46 485.00 529.00 Z"/>
    </g>
    <g fill="#FDEAEC" fill-opacity="1.00" stroke="None">
        <path d=" M 1130.00 527.00  C 1096.69 522.24 1068.26 550.56 1056.32 579.32 C 1044.39 608.09 1033.83 650.95 1053.23 680.77 C 1072.63 710.59 1114.69 695.29 1137.25 674.25 C 1159.81 653.20 1180.06 628.83 1184.22 596.22 C 1188.38 563.61 1162.85 531.69 1130.00 527.00 M 1132.00 529.00  C 1165.07 534.37 1186.01 566.97 1181.08 598.08 C 1176.15 629.19 1158.13 654.35 1135.25 674.25 C 1112.37 694.15 1070.41 708.17 1053.25 677.75 C 1036.08 647.34 1047.29 606.04 1058.97 577.97 C 1070.66 549.91 1099.70 523.76 1132.00 529.00 Z"/>
    </g>
    <g fill="#FCD6DB" fill-opacity="1.00" stroke="None">
        <path d=" M 485.00 529.00  C 450.90 523.46 420.33 553.53 418.93 584.93 C 417.53 616.32 436.23 646.33 457.75 666.25 C 479.27 686.16 515.86 709.88 540.75 686.75 C 565.64 663.63 556.44 616.72 546.77 589.23 C 537.10 561.74 515.26 533.91 485.00 529.00 Z"/>
    </g>
    <g fill="#FCD6DB" fill-opacity="1.00" stroke="None">
        <path d=" M 1132.00 529.00  C 1099.70 523.76 1070.66 549.91 1058.97 577.97 C 1047.29 606.04 1036.08 647.34 1053.25 677.75 C 1070.41 708.17 1112.37 694.15 1135.25 674.25 C 1158.13 654.35 1176.15 629.19 1181.08 598.08 C 1186.01 566.97 1165.07 534.37 1132.00 529.00 Z"/>
    </g>
    <g fill="#FDE9EB" fill-opacity="1.00" stroke="None">
        <path d=" M 813.00 632.00  C 791.25 629.89 764.03 632.81 744.22 637.22 C 724.42 641.63 706.42 648.56 688.69 655.69 C 670.97 662.82 656.68 672.21 641.23 682.23 C 625.78 692.25 612.17 700.27 598.75 712.75 C 585.33 725.22 571.96 734.95 560.75 748.75 C 549.55 762.55 538.47 775.05 527.25 789.25 C 516.04 803.46 507.64 817.42 498.31 833.31 C 488.97 849.19 481.28 865.31 473.77 882.77 C 466.26 900.24 459.12 917.82 453.98 936.98 C 448.83 956.14 444.73 977.19 441.93 997.93 C 439.12 1018.67 437.26 1045.55 439.22 1066.78 C 441.19 1088.01 444.24 1110.57 450.22 1129.78 C 456.21 1148.99 460.99 1165.55 470.70 1182.31 C 480.40 1199.06 488.37 1211.98 501.25 1225.75 C 514.13 1239.52 525.72 1249.37 541.30 1259.70 C 556.89 1270.02 573.98 1277.25 592.98 1282.02 C 611.97 1286.79 640.43 1287.16 660.33 1284.33 C 680.22 1281.50 700.38 1274.96 718.33 1268.33 C 736.28 1261.69 752.64 1254.33 768.75 1244.75 C 784.86 1235.18 799.04 1220.97 815.31 1233.70 C 831.57 1246.42 846.05 1249.85 863.31 1259.70 C 880.56 1269.54 898.84 1273.41 917.78 1279.22 C 936.71 1285.03 963.60 1287.39 983.98 1285.98 C 1004.35 1284.56 1024.14 1277.60 1041.30 1269.30 C 1058.47 1261.01 1070.92 1251.59 1084.92 1238.92 C 1098.92 1226.25 1108.03 1215.44 1118.70 1199.70 C 1129.36 1183.96 1136.36 1168.44 1143.08 1150.08 C 1149.80 1131.72 1155.00 1111.64 1158.00 1091.00 C 1161.00 1070.36 1161.33 1042.37 1160.00 1021.00 C 1158.67 999.63 1155.57 976.91 1150.93 957.07 C 1146.29 937.24 1139.95 918.86 1133.32 900.68 C 1126.69 882.49 1118.41 866.55 1109.77 850.23 C 1101.13 833.91 1093.25 819.02 1082.92 804.08 C 1072.59 789.15 1062.16 776.29 1050.25 762.75 C 1038.33 749.21 1027.54 737.33 1014.08 724.92 C 1000.63 712.51 989.16 701.98 974.23 691.77 C 959.29 681.56 944.78 672.42 928.08 663.92 C 911.37 655.43 893.51 648.21 875.07 642.93 C 856.64 637.64 832.46 633.88 813.00 632.00 M 801.00 1222.00  C 771.89 1242.03 744.37 1255.67 711.78 1268.78 C 679.18 1281.89 630.15 1288.24 594.98 1280.02 C 559.80 1271.81 534.15 1256.11 508.75 1230.25 C 483.35 1204.38 469.16 1179.87 456.69 1146.31 C 444.23 1112.74 439.62 1063.87 441.00 1026.00 C 442.38 988.13 452.11 945.66 463.98 911.98 C 475.84 878.29 490.06 849.53 508.30 820.30 C 526.55 791.08 543.67 768.52 567.75 743.75 C 591.83 718.98 613.41 701.10 642.25 682.25 C 671.08 663.39 702.93 650.91 737.22 641.22 C 771.51 631.53 825.70 631.57 860.22 640.78 C 894.74 649.99 926.60 663.08 955.25 681.75 C 983.89 700.43 1006.35 717.83 1030.25 742.75 C 1054.15 767.67 1071.87 789.74 1090.25 818.75 C 1108.64 847.75 1121.96 876.61 1134.77 910.23 C 1147.59 943.85 1155.44 985.16 1159.00 1023.00 C 1162.56 1060.84 1154.89 1109.64 1143.08 1143.08 C 1131.27 1176.51 1117.78 1202.39 1092.75 1228.75 C 1067.72 1255.11 1041.70 1269.70 1007.00 1279.00 C 972.30 1288.30 923.77 1281.99 890.98 1269.02 C 858.18 1256.06 830.73 1241.23 801.00 1222.00 Z"/>
    </g>
    <g fill="#FEFEFE" fill-opacity="1.00" stroke="None">
        <path d=" M 801.00 1222.00  C 830.73 1241.23 858.18 1256.06 890.98 1269.02 C 923.77 1281.99 972.30 1288.30 1007.00 1279.00 C 1041.70 1269.70 1067.72 1255.11 1092.75 1228.75 C 1117.78 1202.39 1131.27 1176.51 1143.08 1143.08 C 1154.89 1109.64 1162.56 1060.84 1159.00 1023.00 C 1155.44 985.16 1147.59 943.85 1134.77 910.23 C 1121.96 876.61 1108.64 847.75 1090.25 818.75 C 1071.87 789.74 1054.15 767.67 1030.25 742.75 C 1006.35 717.83 983.89 700.43 955.25 681.75 C 926.60 663.08 894.74 649.99 860.22 640.78 C 825.70 631.57 771.51 631.53 737.22 641.22 C 702.93 650.91 671.08 663.39 642.25 682.25 C 613.41 701.10 591.83 718.98 567.75 743.75 C 543.67 768.52 526.55 791.08 508.30 820.30 C 490.06 849.53 475.84 878.29 463.98 911.98 C 452.11 945.66 442.38 988.13 441.00 1026.00 C 439.62 1063.87 444.23 1112.74 456.69 1146.31 C 469.16 1179.87 483.35 1204.38 508.75 1230.25 C 534.15 1256.11 559.80 1271.81 594.98 1280.02 C 630.15 1288.24 679.18 1281.89 711.78 1268.78 C 744.37 1255.67 771.89 1242.03 801.00 1222.00 M 800.00 856.00  C 761.78 823.46 699.27 814.58 656.75 843.75 C 614.24 872.93 596.90 924.52 596.00 974.00 C 595.10 1023.48 620.97 1072.17 653.25 1107.75 C 685.53 1143.34 720.63 1167.95 759.00 1193.00 C 755.10 1202.87 741.94 1207.02 731.77 1212.77 C 721.60 1218.52 710.40 1222.75 698.93 1226.93 C 687.45 1231.11 675.60 1235.50 662.78 1237.78 C 649.95 1240.05 632.02 1239.66 618.98 1239.02 C 605.93 1238.39 592.55 1234.50 581.32 1229.68 C 570.10 1224.85 562.21 1218.75 552.75 1211.25 C 543.30 1203.74 536.60 1196.33 528.75 1187.25 C 520.89 1178.17 515.94 1169.47 510.08 1158.92 C 504.23 1148.37 500.17 1137.28 496.67 1125.33 C 493.17 1113.38 488.74 1101.30 487.07 1087.93 C 485.41 1074.55 483.53 1058.21 484.00 1044.00 C 484.47 1029.79 484.71 1013.42 486.99 999.99 C 489.28 986.57 492.10 972.63 495.00 960.00 C 497.89 947.37 502.16 936.10 506.31 924.31 C 510.45 912.51 515.13 902.12 520.30 891.30 C 525.47 880.49 529.81 869.90 535.92 859.92 C 542.03 849.94 547.08 840.19 553.92 830.92 C 560.75 821.65 566.37 812.45 573.77 803.77 C 581.17 795.09 588.27 786.47 596.25 778.25 C 604.23 770.03 611.69 762.60 620.25 755.25 C 628.80 747.89 636.49 740.35 645.75 733.75 C 655.00 727.14 663.78 720.83 673.75 714.75 C 683.71 708.66 694.12 704.32 705.07 699.07 C 716.03 693.82 726.76 689.28 739.07 686.07 C 751.39 682.86 765.66 679.21 779.00 678.00 C 792.34 676.80 810.77 676.25 824.00 678.00 C 837.23 679.75 850.18 683.01 862.23 686.77 C 874.28 690.54 885.88 693.80 896.68 699.32 C 907.47 704.84 917.53 709.42 927.25 715.75 C 936.96 722.09 946.13 727.89 955.25 734.75 C 964.36 741.62 973.34 748.60 981.75 756.25 C 990.16 763.90 997.18 771.78 1005.25 779.75 C 1013.31 787.73 1019.94 796.23 1026.92 805.08 C 1033.89 813.93 1040.41 822.87 1046.75 832.25 C 1053.10 841.63 1059.35 850.88 1064.77 861.23 C 1070.19 871.58 1075.25 881.85 1080.32 892.68 C 1085.39 903.51 1090.23 915.07 1093.98 927.02 C 1097.72 938.98 1102.65 950.13 1105.00 963.00 C 1107.35 975.87 1111.06 988.50 1112.93 1002.07 C 1114.80 1015.65 1114.25 1032.84 1115.00 1047.00 C 1115.75 1061.16 1112.38 1076.83 1111.22 1090.22 C 1110.06 1103.62 1106.31 1116.57 1102.67 1128.67 C 1099.04 1140.78 1093.42 1151.17 1088.03 1162.03 C 1082.63 1172.89 1076.19 1180.41 1068.75 1189.75 C 1061.32 1199.10 1054.20 1205.23 1044.92 1212.92 C 1035.63 1220.61 1026.83 1225.82 1015.33 1230.33 C 1003.83 1234.84 991.39 1239.24 978.00 1240.00 C 964.61 1240.76 947.45 1238.38 935.00 1236.00 C 922.54 1233.62 909.28 1228.73 898.31 1224.69 C 887.33 1220.66 875.86 1214.81 866.75 1209.25 C 857.65 1203.68 838.43 1199.57 847.70 1190.70 C 856.97 1181.83 865.57 1178.60 874.75 1170.75 C 883.92 1162.89 892.22 1157.58 901.23 1150.23 C 910.24 1142.88 918.11 1136.49 926.75 1128.75 C 935.39 1121.01 942.43 1112.73 950.25 1104.25 C 958.07 1095.77 963.97 1087.33 970.75 1077.75 C 977.54 1068.18 981.79 1057.92 987.26 1047.26 C 992.72 1036.59 996.65 1024.49 999.00 1012.00 C 1001.35 999.51 1004.64 983.61 1004.00 970.00 C 1003.36 956.39 1001.58 941.17 998.22 928.78 C 994.86 916.39 990.31 904.85 985.22 893.78 C 980.13 882.71 974.75 874.29 967.25 864.75 C 959.74 855.22 951.57 850.07 941.77 843.23 C 931.97 836.39 921.05 831.89 908.98 829.02 C 896.90 826.16 878.78 824.92 866.00 827.00 C 853.22 829.08 840.62 831.97 829.75 837.75 C 818.88 843.53 808.85 847.11 800.00 856.00 M 801.00 928.00  C 805.43 918.29 811.96 911.00 817.75 901.75 C 823.55 892.50 831.09 886.17 840.74 880.74 C 850.39 875.32 862.26 871.17 874.01 870.01 C 885.76 868.85 901.06 871.06 911.23 875.77 C 921.40 880.49 928.37 886.64 935.30 895.70 C 942.23 904.75 946.15 913.96 950.33 924.67 C 954.51 935.38 957.28 946.91 959.00 959.00 C 960.72 971.10 959.90 987.66 957.22 999.22 C 954.54 1010.79 951.35 1021.97 946.08 1032.08 C 940.81 1042.19 936.72 1050.47 930.23 1059.23 C 923.74 1067.99 917.89 1075.47 910.25 1083.25 C 902.61 1091.03 895.71 1097.65 887.75 1104.75 C 879.80 1111.86 872.06 1116.92 863.77 1123.77 C 855.48 1130.62 847.45 1135.81 838.77 1142.77 C 830.09 1149.73 821.95 1152.84 813.30 1161.30 C 804.65 1169.76 795.31 1168.20 786.77 1160.23 C 778.23 1152.26 769.24 1149.21 760.75 1142.25 C 752.27 1135.28 744.09 1129.82 735.75 1123.25 C 727.42 1116.67 719.56 1111.34 711.75 1104.25 C 703.95 1097.15 696.53 1090.63 689.25 1082.75 C 681.97 1074.87 675.38 1067.58 669.25 1058.75 C 663.11 1049.93 658.71 1041.23 653.68 1031.32 C 648.65 1021.41 644.79 1009.83 642.67 998.33 C 640.55 986.82 638.29 969.14 640.00 957.00 C 641.71 944.86 645.53 934.14 649.26 923.26 C 652.98 912.37 657.93 904.00 664.92 894.92 C 671.90 885.84 679.70 880.24 689.67 875.67 C 699.65 871.11 715.12 868.68 727.00 870.00 C 738.88 871.32 749.80 876.09 759.74 881.26 C 769.69 886.42 775.91 894.13 782.30 902.70 C 788.70 911.27 793.20 921.56 801.00 928.00 Z"/>
    </g>
    <g fill="#FEECEE" fill-opacity="1.00" stroke="None">
        <path d=" M 800.00 856.00  C 808.85 847.11 818.88 843.53 829.75 837.75 C 840.62 831.97 853.22 829.08 866.00 827.00 C 878.78 824.92 896.90 826.16 908.98 829.02 C 921.05 831.89 931.97 836.39 941.77 843.23 C 951.57 850.07 959.74 855.22 967.25 864.75 C 974.75 874.29 980.13 882.71 985.22 893.78 C 990.31 904.85 994.86 916.39 998.22 928.78 C 1001.58 941.17 1003.36 956.39 1004.00 970.00 C 1004.64 983.61 1001.35 999.51 999.00 1012.00 C 996.65 1024.49 992.72 1036.59 987.26 1047.26 C 981.79 1057.92 977.54 1068.18 970.75 1077.75 C 963.97 1087.33 958.07 1095.77 950.25 1104.25 C 942.43 1112.73 935.39 1121.01 926.75 1128.75 C 918.11 1136.49 910.24 1142.88 901.23 1150.23 C 892.22 1157.58 883.92 1162.89 874.75 1170.75 C 865.57 1178.60 856.97 1181.83 847.70 1190.70 C 838.43 1199.57 857.65 1203.68 866.75 1209.25 C 875.86 1214.81 887.33 1220.66 898.31 1224.69 C 909.28 1228.73 922.54 1233.62 935.00 1236.00 C 947.45 1238.38 964.61 1240.76 978.00 1240.00 C 991.39 1239.24 1003.83 1234.84 1015.33 1230.33 C 1026.83 1225.82 1035.63 1220.61 1044.92 1212.92 C 1054.20 1205.23 1061.32 1199.10 1068.75 1189.75 C 1076.19 1180.41 1082.63 1172.89 1088.03 1162.03 C 1093.42 1151.17 1099.04 1140.78 1102.67 1128.67 C 1106.31 1116.57 1110.06 1103.62 1111.22 1090.22 C 1112.38 1076.83 1115.75 1061.16 1115.00 1047.00 C 1114.25 1032.84 1114.80 1015.65 1112.93 1002.07 C 1111.06 988.50 1107.35 975.87 1105.00 963.00 C 1102.65 950.13 1097.72 938.98 1093.98 927.02 C 1090.23 915.07 1085.39 903.51 1080.32 892.68 C 1075.25 881.85 1070.19 871.58 1064.77 861.23 C 1059.35 850.88 1053.10 841.63 1046.75 832.25 C 1040.41 822.87 1033.89 813.93 1026.92 805.08 C 1019.94 796.23 1013.31 787.73 1005.25 779.75 C 997.18 771.78 990.16 763.90 981.75 756.25 C 973.34 748.60 964.36 741.62 955.25 734.75 C 946.13 727.89 936.96 722.09 927.25 715.75 C 917.53 709.42 907.47 704.84 896.68 699.32 C 885.88 693.80 874.28 690.54 862.23 686.77 C 850.18 683.01 837.23 679.75 824.00 678.00 C 810.77 676.25 792.34 676.80 779.00 678.00 C 765.66 679.21 751.39 682.86 739.07 686.07 C 726.76 689.28 716.03 693.82 705.07 699.07 C 694.12 704.32 683.71 708.66 673.75 714.75 C 663.78 720.83 655.00 727.14 645.75 733.75 C 636.49 740.35 628.80 747.89 620.25 755.25 C 611.69 762.60 604.23 770.03 596.25 778.25 C 588.27 786.47 581.17 795.09 573.77 803.77 C 566.37 812.45 560.75 821.65 553.92 830.92 C 547.08 840.19 542.03 849.94 535.92 859.92 C 529.81 869.90 525.47 880.49 520.30 891.30 C 515.13 902.12 510.45 912.51 506.31 924.31 C 502.16 936.10 497.89 947.37 495.00 960.00 C 492.10 972.63 489.28 986.57 486.99 999.99 C 484.71 1013.42 484.47 1029.79 484.00 1044.00 C 483.53 1058.21 485.41 1074.55 487.07 1087.93 C 488.74 1101.30 493.17 1113.38 496.67 1125.33 C 500.17 1137.28 504.23 1148.37 510.08 1158.92 C 515.94 1169.47 520.89 1178.17 528.75 1187.25 C 536.60 1196.33 543.30 1203.74 552.75 1211.25 C 562.21 1218.75 570.10 1224.85 581.32 1229.68 C 592.55 1234.50 605.93 1238.39 618.98 1239.02 C 632.02 1239.66 649.95 1240.05 662.78 1237.78 C 675.60 1235.50 687.45 1231.11 698.93 1226.93 C 710.40 1222.75 721.60 1218.52 731.77 1212.77 C 741.94 1207.02 755.10 1202.87 759.00 1193.00 C 720.63 1167.95 685.53 1143.34 653.25 1107.75 C 620.97 1072.17 595.10 1023.48 596.00 974.00 C 596.90 924.52 614.24 872.93 656.75 843.75 C 699.27 814.58 761.78 823.46 800.00 856.00 M 845.00 1196.00  C 850.28 1189.64 858.85 1185.28 865.75 1179.75 C 872.64 1174.21 880.31 1168.85 887.25 1163.25 C 894.18 1157.65 901.42 1153.10 908.23 1147.23 C 915.04 1141.36 922.38 1135.70 928.75 1129.75 C 935.11 1123.80 941.15 1117.74 947.25 1111.25 C 953.34 1104.76 958.50 1097.12 963.92 1089.92 C 969.34 1082.72 974.55 1076.08 978.92 1067.92 C 983.29 1059.76 988.08 1051.83 991.77 1042.77 C 995.47 1033.71 998.25 1024.74 1000.78 1014.78 C 1003.30 1004.82 1004.99 992.78 1006.00 982.00 C 1007.00 971.21 1005.14 957.38 1004.00 947.00 C 1002.86 936.62 998.89 926.47 996.08 916.92 C 993.27 907.38 989.38 899.33 985.25 890.75 C 981.11 882.18 976.55 874.74 970.75 867.25 C 964.95 859.76 959.80 853.75 952.25 847.75 C 944.70 841.75 937.74 838.19 928.97 834.03 C 920.21 829.87 909.36 826.68 899.33 825.67 C 889.30 824.66 875.07 821.89 865.00 825.00 C 854.93 828.11 844.04 828.23 834.93 832.93 C 825.81 837.63 818.85 838.52 810.77 845.77 C 802.69 853.02 795.79 852.88 787.92 845.08 C 780.04 837.28 772.08 837.82 762.93 833.07 C 753.78 828.33 743.33 826.95 732.98 825.02 C 722.62 823.09 709.02 824.15 698.98 825.98 C 688.94 827.80 677.77 829.50 668.98 833.98 C 660.18 838.45 654.12 842.83 646.75 848.75 C 639.39 854.68 633.52 860.23 627.75 867.75 C 621.98 875.27 618.19 883.14 613.70 891.69 C 609.20 900.25 606.29 908.50 602.74 917.74 C 599.20 926.98 597.77 938.68 596.00 949.00 C 594.23 959.32 593.23 973.14 594.00 984.00 C 594.77 994.86 597.38 1006.18 599.92 1016.08 C 602.47 1025.97 604.59 1035.26 608.93 1044.07 C 613.27 1052.89 617.32 1060.95 621.92 1069.08 C 626.53 1077.20 631.47 1083.79 636.77 1091.23 C 642.07 1098.67 648.38 1104.69 654.25 1111.75 C 660.12 1118.81 666.22 1123.99 672.75 1130.25 C 679.29 1136.50 686.35 1142.06 693.25 1147.75 C 700.14 1153.45 707.04 1158.46 714.08 1163.92 C 721.13 1169.38 728.76 1174.73 735.75 1180.25 C 742.75 1185.77 752.14 1189.86 757.00 1197.00 C 716.71 1219.28 666.18 1243.70 618.00 1238.00 C 569.82 1232.30 537.38 1201.92 513.08 1160.92 C 488.79 1119.92 482.41 1055.56 488.33 1007.33 C 494.25 959.10 510.58 911.30 532.77 869.77 C 554.96 828.24 576.97 799.35 610.75 765.75 C 644.53 732.15 678.82 712.55 722.03 694.03 C 765.23 675.50 831.58 674.79 875.07 692.93 C 918.57 711.06 953.41 730.80 987.10 763.90 C 1020.78 797.00 1043.39 826.19 1065.77 867.23 C 1088.15 908.27 1104.41 955.97 1110.93 1004.07 C 1117.45 1052.18 1111.57 1116.10 1087.75 1157.75 C 1063.93 1199.39 1033.64 1230.50 985.00 1237.00 C 936.36 1243.50 885.38 1219.84 845.00 1196.00 Z"/>
    </g>
    <g fill="#FDD6DB" fill-opacity="1.00" stroke="None">
        <path d=" M 845.00 1196.00  C 885.38 1219.84 936.36 1243.50 985.00 1237.00 C 1033.64 1230.50 1063.93 1199.39 1087.75 1157.75 C 1111.57 1116.10 1117.45 1052.18 1110.93 1004.07 C 1104.41 955.97 1088.15 908.27 1065.77 867.23 C 1043.39 826.19 1020.78 797.00 987.10 763.90 C 953.41 730.80 918.57 711.06 875.07 692.93 C 831.58 674.79 765.23 675.50 722.03 694.03 C 678.82 712.55 644.53 732.15 610.75 765.75 C 576.97 799.35 554.96 828.24 532.77 869.77 C 510.58 911.30 494.25 959.10 488.33 1007.33 C 482.41 1055.56 488.79 1119.92 513.08 1160.92 C 537.38 1201.92 569.82 1232.30 618.00 1238.00 C 666.18 1243.70 716.71 1219.28 757.00 1197.00 C 752.14 1189.86 742.75 1185.77 735.75 1180.25 C 728.76 1174.73 721.13 1169.38 714.08 1163.92 C 707.04 1158.46 700.14 1153.45 693.25 1147.75 C 686.35 1142.06 679.29 1136.50 672.75 1130.25 C 666.22 1123.99 660.12 1118.81 654.25 1111.75 C 648.38 1104.69 642.07 1098.67 636.77 1091.23 C 631.47 1083.79 626.53 1077.20 621.92 1069.08 C 617.32 1060.95 613.27 1052.89 608.93 1044.07 C 604.59 1035.26 602.47 1025.97 599.92 1016.08 C 597.38 1006.18 594.77 994.86 594.00 984.00 C 593.23 973.14 594.23 959.32 596.00 949.00 C 597.77 938.68 599.20 926.98 602.74 917.74 C 606.29 908.50 609.20 900.25 613.70 891.69 C 618.19 883.14 621.98 875.27 627.75 867.75 C 633.52 860.23 639.39 854.68 646.75 848.75 C 654.12 842.83 660.18 838.45 668.98 833.98 C 677.77 829.50 688.94 827.80 698.98 825.98 C 709.02 824.15 722.62 823.09 732.98 825.02 C 743.33 826.95 753.78 828.33 762.93 833.07 C 772.08 837.82 780.04 837.28 787.92 845.08 C 795.79 852.88 802.69 853.02 810.77 845.77 C 818.85 838.52 825.81 837.63 834.93 832.93 C 844.04 828.23 854.93 828.11 865.00 825.00 C 875.07 821.89 889.30 824.66 899.33 825.67 C 909.36 826.68 920.21 829.87 928.97 834.03 C 937.74 838.19 944.70 841.75 952.25 847.75 C 959.80 853.75 964.95 859.76 970.75 867.25 C 976.55 874.74 981.11 882.18 985.25 890.75 C 989.38 899.33 993.27 907.38 996.08 916.92 C 998.89 926.47 1002.86 936.62 1004.00 947.00 C 1005.14 957.38 1007.00 971.21 1006.00 982.00 C 1004.99 992.78 1003.30 1004.82 1000.78 1014.78 C 998.25 1024.74 995.47 1033.71 991.77 1042.77 C 988.08 1051.83 983.29 1059.76 978.92 1067.92 C 974.55 1076.08 969.34 1082.72 963.92 1089.92 C 958.50 1097.12 953.34 1104.76 947.25 1111.25 C 941.15 1117.74 935.11 1123.80 928.75 1129.75 C 922.38 1135.70 915.04 1141.36 908.23 1147.23 C 901.42 1153.10 894.18 1157.65 887.25 1163.25 C 880.31 1168.85 872.64 1174.21 865.75 1179.75 C 858.85 1185.28 850.28 1189.64 845.00 1196.00 Z"/>
    </g>
    <g fill="#FCD6DB" fill-opacity="1.00" stroke="None">
        <path d=" M 801.00 928.00  C 793.20 921.56 788.70 911.27 782.30 902.70 C 775.91 894.13 769.69 886.42 759.74 881.26 C 749.80 876.09 738.88 871.32 727.00 870.00 C 715.12 868.68 699.65 871.11 689.67 875.67 C 679.70 880.24 671.90 885.84 664.92 894.92 C 657.93 904.00 652.98 912.37 649.26 923.26 C 645.53 934.14 641.71 944.86 640.00 957.00 C 638.29 969.14 640.55 986.82 642.67 998.33 C 644.79 1009.83 648.65 1021.41 653.68 1031.32 C 658.71 1041.23 663.11 1049.93 669.25 1058.75 C 675.38 1067.58 681.97 1074.87 689.25 1082.75 C 696.53 1090.63 703.95 1097.15 711.75 1104.25 C 719.56 1111.34 727.42 1116.67 735.75 1123.25 C 744.09 1129.82 752.27 1135.28 760.75 1142.25 C 769.24 1149.21 778.23 1152.26 786.77 1160.23 C 795.31 1168.20 804.65 1169.76 813.30 1161.30 C 821.95 1152.84 830.09 1149.73 838.77 1142.77 C 847.45 1135.81 855.48 1130.62 863.77 1123.77 C 872.06 1116.92 879.80 1111.86 887.75 1104.75 C 895.71 1097.65 902.61 1091.03 910.25 1083.25 C 917.89 1075.47 923.74 1067.99 930.23 1059.23 C 936.72 1050.47 940.81 1042.19 946.08 1032.08 C 951.35 1021.97 954.54 1010.79 957.22 999.22 C 959.90 987.66 960.72 971.10 959.00 959.00 C 957.28 946.91 954.51 935.38 950.33 924.67 C 946.15 913.96 942.23 904.75 935.30 895.70 C 928.37 886.64 921.40 880.49 911.23 875.77 C 901.06 871.06 885.76 868.85 874.01 870.01 C 862.26 871.17 850.39 875.32 840.74 880.74 C 831.09 886.17 823.55 892.50 817.75 901.75 C 811.96 911.00 805.43 918.29 801.00 928.00 Z"/>
    </g>
</svg>